<?xml version="1.0" encoding="utf-8" ?>
<svg baseProfile="full" height="200mm" version="1.1" viewBox="0,0,200,200" width="200mm" xmlns="http://www.w3.org/2000/svg" xmlns:ev="http://www.w3.org/2001/xml-events" xmlns:xlink="http://www.w3.org/1999/xlink"><defs /><rect fill="#1a1a1a" height="200" width="200" x="0" y="0" /><text alignment-baseline="middle" fill="#e1ed5e" style="dominant-baseline: central; font-size:9.0px; font-family:Arial;" text-anchor="middle" x="100.0" y="100.0">2023</text><line stroke="#e1ed5e" stroke-width="0.3" x1="100.0" x2="100.0" y1="15.0" y2="10.0" /><path d="M 100.0 14.0 a86.0,86.0 0 0,1 42.46469731375804,11.215312516191453" fill="none" id="id25" stroke="none" /><text fill="#e1ed5e" style="font-size:6.75px; font-family:Arial;" text-anchor="middle"><textPath startOffset="22.20632615414155" xlink:href="#id25">January</textPath></text><line stroke="#e1ed5e" stroke-width="0.3" x1="143.23703022742887" x2="145.7803849466894" y1="26.81831364943548" y2="22.513508569990506" /><path d="M 143.74570117128098 25.957352633546492 a86.0,86.0 0 0,1 28.547481713284135,27.462654790039103" fill="none" id="id26" stroke="none" /><text fill="#e1ed5e" style="font-size:6.75px; font-family:Arial;" text-anchor="middle"><textPath startOffset="19.985693538727396" xlink:href="#id26">February</textPath></text><path d="M 117.2510076193507 88.02491185347247 l 6.175595038759149 -4.2868971238204345 a28.517676571452547,28.517676571452547 0 0,0 0.2764524402818903,0.405659843674263 l -6.248471944709773 4.179959256875765" fill="#ff4a06" stroke="none" /><line stroke="#e1ed5e" stroke-width="0.3" x1="172.23445277983987" x2="176.4835382374775" y1="55.19839476539836" y2="52.563006222186495" /><path d="M 173.08426987136738 54.67131705675599 a86.0,86.0 0 0,1 12.851231095245387,41.99856678651699" fill="none" id="id27" stroke="none" /><text fill="#e1ed5e" style="font-size:6.75px; font-family:Arial;" text-anchor="middle"><textPath startOffset="22.20632615414155" xlink:href="#id27">March</textPath></text><path d="M 120.83666639777658 97.38593545837742 l 7.5758874632162385 -0.9504331648286022 a28.635273017785487,28.635273017785487 0 0,0 0.05714734208672595,0.4896035277053938 l -7.5911251583065535 0.8198858987983557" fill="#ff4b07" stroke="none" /><line stroke="#e1ed5e" stroke-width="0.3" x1="184.98032266829074" x2="189.97916517819016" y1="98.17113171792111" y2="98.06355123074" /><path d="M 185.9800911702706 98.14961562048488 a86.0,86.0 0 0,1 -9.607161424134198,41.387399972396054" fill="none" id="id28" stroke="none" /><text fill="#e1ed5e" style="font-size:6.75px; font-family:Arial;" text-anchor="middle"><textPath startOffset="21.466115282336823" xlink:href="#id28">April</textPath></text><path d="M 120.99980553446 99.90962569577887 l 7.872396921721282 -0.03387947536874284 a28.872469822868677,28.872469822868677 0 0,0 -0.0021389037886752026,0.497005913419865 l -7.871813720643104 -0.10163591625480686" fill="#ff4f07" stroke="none" /><path d="M 120.49622156327973 104.57218783832717 l 7.405608570319784 1.6520036796093953 a28.587631676237113,28.587631676237113 0 0,0 -0.11127318260006776,0.47936195835133666 l -7.376074821789163 -1.779234295309297" fill="#ff4b06" stroke="none" /><path d="M 118.64920377521936 109.65438752849418 l 11.153467545879653 5.773967579113902 a33.5594004594825,33.5594004594825 0 0,0 -0.26998935871933044,0.5107181185505757 l -11.05242567893543 -5.965100712750612" fill="#ff900d" stroke="none" /><line stroke="#e1ed5e" stroke-width="0.3" x1="174.80103733775053" x2="179.2010983576182" y1="140.37084112569926" y2="142.7455964860345" /><path d="M 175.68104954172406 140.8457921977663 a86.0,86.0 0 0,1 -30.038265399797805,32.042727171017184" fill="none" id="id29" stroke="none" /><text fill="#e1ed5e" style="font-size:6.75px; font-family:Arial;" text-anchor="middle"><textPath startOffset="22.206326154141568" xlink:href="#id29">May</textPath></text><path d="M 118.12598468904814 110.60418214915192 l 6.471764035222102 3.7861537363700353 a28.497912365653725,28.497912365653725 0 0,0 -0.25135039870452597,0.42127772587670687 l -6.405632760819349 -3.8969935561328466" fill="#ff4906" stroke="none" /><path d="M 117.94076556474637 110.91462005526583 l 10.577437130992292 6.434993368961845 a33.38108702492141,33.38108702492141 0 0,0 -0.30287035450326144,0.48832344747957157 l -10.465102136821068 -6.616113147806687" fill="#ff8d0d" stroke="none" /><path d="M 117.14729908036423 112.12312394758627 l 10.200978233260958 7.212081793690001 a33.49296124681169,33.49296124681169 0 0,0 -0.33687572516702163,0.4678909182734348 l -10.075322715718334 -7.386606317414567" fill="#ff8f0d" stroke="none" /><path d="M 116.71984013943494 112.70617746262583 l 10.864697626170885 8.256584690083187 a34.645982751441515,34.645982751441515 0 0,0 -0.3649264378761548,0.47171661353380034 l -10.720964371076661 -8.442379297730241" fill="#ff9f0e" stroke="none" /><path d="M 116.27256486870786 113.27417163493432 l 9.598444785933562 7.829829196867096 a33.38694343091659,33.38694343091659 0 0,0 -0.3671037518822202,0.44220011784232377 l -9.4622450341578 -7.99389057182319" fill="#ff8d0d" stroke="none" /><path d="M 115.80600337817218 113.82643327865902 l 9.20392441007877 8.051209639339671 a33.228417771855845,33.228417771855845 0 0,0 -0.38029315007873493,0.42726338557346294 l -9.063972410351697 -8.208447194654001" fill="#ff8b0c" stroke="none" /><path d="M 115.56566222782051 114.09645910891815 l 9.345884634253476 8.463750443457187 a33.6087521652976,33.6087521652976 0 0,0 -0.3920278364605335,0.4254687900398709 l -9.198810389797222 -8.623370488298393" fill="#ff910d" stroke="none" /><path d="M 114.55890576462653 115.13401014063108 l 9.263176165551826 9.629089183647835 a34.36135439170338,34.36135439170338 0 0,0 -0.429785546690406,0.40638906025702554 l -9.096054784470613 -9.787112880650783" fill="#ff9b0e" stroke="none" /><path d="M 114.0293411484842 115.62618273729858 l 4.988858723260162 5.556698439017728 a28.46763743782671,28.46763743782671 0 0,0 -0.3674462296288402,0.324228575406903 l -4.892470140724734 -5.64175015619692" fill="#ff4906" stroke="none" /><path d="M 113.48314897796784 116.09983520530334 l 9.463822290489954 11.300474357892103 a35.73990003559561,35.73990003559561 0 0,0 -0.47505112870292343,0.3909347376063246 l -9.26790103324234 -11.461704214355604" fill="#ffad10" stroke="none" /><path d="M 112.92097659922987 116.55440617244103 l 4.581289546486976 5.869566233145554 a28.445805643047187,28.445805643047187 0 0,0 -0.3885849730403761,0.29795038721406336 l -4.479575844953106 -5.947555962186989" fill="#ff4806" stroke="none" /><path d="M 111.1453310114006 117.79835938074945 l 2.590999392316115 4.137655336801922 a25.88195345503702,25.88195345503702 0 0,0 -0.3796276195492976,0.23319829022400526 l -2.5193925728345086 -4.181642093854306" fill="#ff2303" stroke="none" /><line stroke="#e1ed5e" stroke-width="0.3" x1="143.8653032363475" x2="146.44561519142675" y1="172.8068346515853" y2="177.08958963109032" /><path d="M 144.38136562736335 173.6633856474863 a86.0,86.0 0 0,1 -40.68145358897372,12.25698825130547" fill="none" id="id30" stroke="none" /><text fill="#e1ed5e" style="font-size:6.75px; font-family:Arial;" text-anchor="middle"><textPath startOffset="21.466115282336833" xlink:href="#id30">June</textPath></text><path d="M 110.8373102113329 117.98757091392108 l 3.8153432222693713 6.332637474910633 a28.39318208164518,28.39318208164518 0 0,0 -0.42080335750234393,0.24861804087125927 l -3.705771993738645 -6.397374088075642" fill="#ff4806" stroke="none" /><path d="M 109.57404056367764 118.69057910512821 l 5.619839864020902 10.971131868307838 a33.32673251794807,33.32673251794807 0 0,0 -0.5128287325179426,0.25714297263434743 l -5.430157223820199 -11.066242681851486" fill="#ff8d0d" stroke="none" /><path d="M 107.93186726928326 119.44442032107085 l 4.631212882113418 11.353095912850346 a33.26135879769581,33.26135879769581 0 0,0 -0.5319899715407369,0.21168978869780988 l -4.4351018345308155 -11.431132545954224" fill="#ff8c0c" stroke="none" /><path d="M 107.2578585660854 119.70592522655815 l 4.266604382900623 11.584324243189668 a33.34505897643015,33.34505897643015 0 0,0 -0.540317681872717,0.19373869713722824 l -4.066567140398171 -11.656050481366856" fill="#ff8d0d" stroke="none" /><path d="M 106.57524785965236 119.94407469862006 l 5.369903870974621 16.28801928278779 a38.15037724774517,38.15037724774517 0 0,0 -0.6254457411012809,0.20024797537510705 l -5.0887367847824 -16.378040104822606" fill="#ffcd13" stroke="none" /><path d="M 106.2309692047433 120.05430185196036 l 4.016086299104995 12.925727003186475 a34.53526385863101,34.53526385863101 0 0,0 -0.5692151945610244,0.17149986877779574 l -3.7929961301037243 -12.992942241069997" fill="#ff9d0e" stroke="none" /><path d="M 104.48393922423573 120.51570834832081 l 1.5967575794439723 7.305766462172963 a28.478225616235648,28.478225616235648 0 0,0 -0.4798018755411802,0.10054714804590878 l -1.470764242473414 -7.332169590945414" fill="#ff4906" stroke="none" /><path d="M 103.41894727170886 120.7198165907248 l 1.2182924988935953 7.383207497761209 a28.483046810481525,28.483046810481525 0 0,0 -0.4844344198030388,0.0756586934762038 l -1.0910222154820393 -7.403084498584518" fill="#ff4906" stroke="none" /><path d="M 102.70371172650421 120.8252237178851 l 1.585725767384069 12.213984774066798 a33.31649098852759,33.31649098852759 0 0,0 -0.5693511893303982,0.06894050003014653 l -1.3752471550022904 -12.239470802822295" fill="#ff8d0c" stroke="none" /><path d="M 102.34483914955558 120.86867818915974 l 1.3847532079841358 12.324073092307623 a33.401625660838306,33.401625660838306 0 0,0 -0.5719112289533,0.05928093728494237 l -1.172409382425233 -12.346083398048323" fill="#ff8e0d" stroke="none" /><path d="M 101.98527174616119 120.90594882070398 l 1.1614681064338195 12.230866044881441 a33.285889970616566,33.285889970616566 0 0,0 -0.5708620196165421,0.04925637711462134 l -0.9507617690757357 -12.249046674274725" fill="#ff8c0c" stroke="none" /><path d="M 101.26447882468166 120.96189622390904 l 0.7353257421392733 12.189861622532765 a33.212019911691506,33.212019911691506 0 0,0 -0.5709493076290346,0.029511557589036282 l -0.5253883660967591 -12.200712986884005" fill="#ff8b0c" stroke="none" /><line stroke="#e1ed5e" stroke-width="0.3" x1="102.19456741930631" x2="102.32365962044197" y1="184.97166512339345" y2="189.96999836594603" /><path d="M 102.22038585953345 185.97133177190398 a86.0,86.0 0 0,1 -42.740103519485714,-10.115201625700543" fill="none" id="id31" stroke="none" /><text fill="#e1ed5e" style="font-size:6.75px; font-family:Arial;" text-anchor="middle"><textPath startOffset="22.20632615414155" xlink:href="#id31">July</textPath></text><path d="M 99.45781275523022 120.99299961872073 l -0.191464814345151 7.413344399595549 a28.41581647306262,28.41581647306262 0 0,0 -0.4888598182031404,-0.016837320583878237 l 0.3190449842229344 -7.408950280585577" fill="#ff4806" stroke="none" /><path d="M 99.09653310690486 120.98055641714683 l -0.537130165016175 12.473384267426129 a33.484943888421924,33.484943888421924 0 0,0 -0.5756411558202447,-0.02975407254832285 l 0.7517593892499087 -12.462290388115603" fill="#ff8f0d" stroke="none" /><path d="M 98.01472825383883 120.90594882070398 l -2.2989063833174717 24.20868542866115 a45.3175948799039,45.3175948799039 0 0,0 -0.775939519954605,-0.08042930386857153 l 2.71527849987767 -24.165526756336813" fill="#d8ff1c" stroke="none" /><path d="M 97.65516085044442 120.86867818915974 l -1.3710737135112647 12.202327868120806 a33.27911432184745,33.27911432184745 0 0,0 -0.5687124531070862,-0.06886315796878859 l 1.5809135896697404 -12.176919181426669" fill="#ff8c0c" stroke="none" /><path d="M 96.22490169976321 120.6578951692458 l -2.1987251429786108 12.03174855255771 a33.23100018340041,33.23100018340041 0 0,0 -0.5618133935848136,-0.10767287400767302 l 2.4055061511351195 -11.992118480201569" fill="#ff8b0c" stroke="none" /><path d="M 95.16358092515715 120.4354850818985 l -2.8673074488618093 12.115331134396344 a33.450008052301484,33.450008052301484 0 0,0 -0.559167402479695,-0.13742974305419706 l 3.0754281360847147 -12.064180133028117" fill="#ff8e0d" stroke="none" /><path d="M 94.81253420990036 120.34920634021253 l -3.0397157955112277 11.92408903332221 a33.30543665995138,33.30543665995138 0 0,0 -0.5543127818566476,-0.14639904375881613 l 3.2445190201793648 -11.869998640259812" fill="#ff8c0c" stroke="none" /><path d="M 94.11515582081647 120.15858648285463 l -3.4292097196377505 11.74678863132687 a33.237096160867914,33.237096160867914 0 0,0 -0.5478186075339244,-0.1650532526254103 l 3.6309033016119208 -11.686020009595735" fill="#ff8b0c" stroke="none" /><path d="M 93.08242187328487 119.8279376855182 l -8.015890986373103 22.97604509270447 a45.33419726244132,45.33419726244132 0 0,0 -0.7345876458553418,-0.26339699442714665 l 8.410198192858171 -22.834660557237367" fill="#d7ff1c" stroke="none" /><path d="M 92.06813273071674 119.44442032107085 l -4.656732560493825 11.415655627485116 a33.328923373324045,33.328923373324045 0 0,0 -0.5293403413916993,-0.2212643056325039 l 4.852544361382987 -11.333806278832638" fill="#ff8d0d" stroke="none" /><path d="M 91.7346041902142 119.30500536409082 l -4.801771031695465 11.215217958983532 a33.19992290583578,33.19992290583578 0 0,0 -0.5234194322418593,-0.2294516972156297 l 4.994111138595068 -11.130901708473449" fill="#ff8b0c" stroke="none" /><path d="M 91.07499286063937 119.00905698771935 l -5.242374858648269 11.16554876461096 a33.3349898002995,33.3349898002995 0 0,0 -0.5173071851551785,-0.2483388855803602 l 5.43379471180369 -11.073655602531037" fill="#ff8d0d" stroke="none" /><path d="M 90.42595943632237 118.69057910512821 l -5.620107131167485 10.971653631059128 a33.327318750066155,33.327318750066155 0 0,0 -0.5083353995259757,-0.26593705561729625 l 5.808133433219957 -10.873287156497115" fill="#ff8d0d" stroke="none" /><line stroke="#e1ed5e" stroke-width="0.3" x1="58.666819895761336" x2="56.23545636021788" y1="174.27360380694188" y2="178.64263932499728" /><path d="M 58.180547188652646 175.14741091055294 a86.0,86.0 0 0,1 -31.652253787137756,-30.449443065178592" fill="none" id="id32" stroke="none" /><text fill="#e1ed5e" style="font-size:6.75px; font-family:Arial;" text-anchor="middle"><textPath startOffset="22.20632615414155" xlink:href="#id32">August</textPath></text><path d="M 89.4739219176387 118.17145234162733 l -12.220111688617838 21.09590822161834 a45.37967336485948,45.37967336485948 0 0,0 -0.6725529692086589,-0.39735614891303184 l 12.58143252885488 -20.882433500411558" fill="#d7ff1c" stroke="none" /><path d="M 88.24862548938628 117.40417183066458 l -6.873550909771482 10.179954779965238 a33.28320729416212,33.28320729416212 0 0,0 -0.47205591191596713,-0.32468436065141343 l 7.0477637063103415 -10.06012962994872" fill="#ff8c0c" stroke="none" /><path d="M 87.95078237400918 117.19931262002967 l -6.98582293655041 9.971714041808928 a33.17525371532122,33.17525371532122 0 0,0 -0.46488431238565686,-0.3316826134431262 l 7.156434576784952 -9.849987166521585" fill="#ff8b0c" stroke="none" /><path d="M 87.07902340077011 116.55440617244103 l -7.516505305879924 9.630176239020566 a33.216306578009466,33.216306578009466 0 0,0 -0.4476965093575576,-0.3556771834001248 l 7.681159307954839 -9.49936514161531" fill="#ff8b0c" stroke="none" /><path d="M 85.70375840098266 115.38237550388516 l -5.5696496490769505 5.992794800912765 a29.18135604525986,29.18135604525986 0 0,0 -0.36499507318917807,-0.3451256235441601 l 5.671980556656943 -5.896034540622677" fill="#ff5307" stroke="none" /><path d="M 85.44109423537348 115.13401014063109 l -5.110178741997171 5.312040489315343 a28.371004065613135,28.371004065613135 0 0,0 -0.3490309643570328,-0.34160025990350346 l 5.200859658729998 -5.223290126489267" fill="#ff4706" stroke="none" /><path d="M 84.67929136418377 114.36230785411682 l -8.8806725860639 8.325134082537838 a33.17268265720831,33.17268265720831 0 0,0 -0.38694132253814106,-0.4199483837758153 l 9.02266031659777 -8.171034443960682" fill="#ff8b0c" stroke="none" /><path d="M 84.19399662182784 113.82643327865904 l -5.48188542304762 4.795324993267623 a28.283282884968777,28.283282884968777 0 0,0 -0.31738892694149934,-0.36919502617441347 l 5.5636168595598985 -4.700252867931678" fill="#ff4606" stroke="none" /><path d="M 83.72743513129214 113.27417163493432 l -18.800102860583948 15.335983856220906 a45.2618273921567,45.2618273921567 0 0,0 -0.48728040195387023,-0.6079572242244052 l 19.06130117459268 -15.010098798418243" fill="#d8ff1c" stroke="none" /><path d="M 83.28015986056508 112.70617746262583 l -9.731351254095772 7.395302524098553 a33.222507789055804,33.222507789055804 0 0,0 -0.34209490483419513,-0.45829202937577335 l 9.857207425625052 -7.226697615213474" fill="#ff8b0c" stroke="none" /><path d="M 82.64656182679789 111.8261652097733 l -52.060314519606294 35.47849562931988 a84.0,84.0 0 0,0 -0.8039875783570691,-1.2018523431767072 l 52.6633052033741 -34.57710637193735" fill="#4dd2ff" stroke="none" /><path d="M 82.05923443525364 110.91462005526583 l -20.792124200619106 12.64930055368368 a45.33756835165323,45.33756835165323 0 0,0 -0.3998754622887985,-0.6702142755896451 l 21.006780538606137 -12.289524184207925" fill="#d7ff1c" stroke="none" /><line stroke="#e1ed5e" stroke-width="0.3" x1="26.63291911575756" x2="22.317208475507996" y1="142.92168965132927" y2="145.44649492493687" /><path d="M 25.769776987707644 143.4266507060508 a86.0,86.0 0 0,1 -11.730757126820373,-40.83630448921669" fill="none" id="id33" stroke="none" /><text fill="#e1ed5e" style="font-size:6.75px; font-family:Arial;" text-anchor="middle"><textPath startOffset="21.46611528233685" xlink:href="#id33">September</textPath></text><path d="M 81.69416730710424 110.29060199501025 l -23.283559121291855 13.088824964378222 a47.710325050489814,47.710325050489814 0 0,0 -0.39627648578769414,-0.7193569279908558 l 23.505412016531068 -12.686097517989545" fill="#bbff1f" stroke="none" /><path d="M 81.18737489456691 109.33194174019688 l -23.999709070210393 11.90497793740637 a47.790194757501695,47.790194757501695 0 0,0 -0.3592155527723797,-0.7400904348433122 l 24.20107787959749 -11.490098546597773" fill="#baff1f" stroke="none" /><path d="M 80.87730276802145 108.67885076344099 l -11.188204773447863 5.077775292974482 a33.28656697285876,33.28656697285876 0 0,0 -0.2323068165981802,-0.5237905442204032 l 11.273952674777323 -4.884436412261383" fill="#ff8c0c" stroke="none" /><path d="M 80.58989483394504 108.01547362559985 l -25.579930693922766 10.563325549641148 a48.67520010720055,48.67520010720055 0 0,0 -0.31313772785625293,-0.7771821603010616 l 25.757971036036405 -10.12144402149728" fill="#b0ff20" stroke="none" /><path d="M 80.0844068197444 106.66101706037122 l -23.41344489968568 7.830916935654454 a45.68831023224832,45.68831023224832 0 0,0 -0.24303515671027254,-0.7479853007620169 l 23.544772307412202 -7.4267327349146335" fill="#d3ff1c" stroke="none" /><path d="M 79.76711848015287 105.62410040840567 l -23.506837364021607 6.534156466523833 a45.39808606402514,45.39808606402514 0 0,0 -0.2028038944794269,-0.7547087362584946 l 23.615829334842807 -6.1285567970898" fill="#d7ff1c" stroke="none" /><path d="M 79.58551787078972 104.9243191809786 l -9.590599451243333 2.313415179279267 a30.86567218317681,30.86567218317681 0 0,0 -0.12014012268694658,-0.5175605041762292 l 9.629000139860835 -2.1479860177544636" fill="#ff6b09" stroke="none" /><path d="M 79.4281124754447 104.21870165774334 l -9.195142900926683 1.8856589874421295 a30.386498963158928,30.386498963158928 0 0,0 -0.10066622711913374,-0.5132949233164025 l 9.226239061021483 -1.7271003370577722" fill="#ff6409" stroke="none" /><path d="M 79.18660465613746 102.79330883721812 l -12.131177574185498 1.6280921475806693 a33.23994090579832,33.23994090579832 0 0,0 -0.07122605588023241,-0.5677417453069319 l 12.15740513931258 -1.4190326479863287" fill="#ff8b0c" stroke="none" /><path d="M 79.10278846688536 102.07522291339032 l -13.540219665688468 1.3446279211964702 a34.606820820513434,34.606820820513434 0 0,0 -0.053764833373150744,-0.5932904561214198 l 13.561359095338695 -1.1113560765264843" fill="#ff9e0e" stroke="none" /><path d="M 79.04373962182676 101.35467743843564 l -26.897196154395818 1.7387178881155958 a47.95333561662635,47.95333561662635 0 0,0 -0.04615770952032938,-0.824176910480937 l 26.92314021480368 -1.2754692612992213" fill="#b9ff1f" stroke="none" /><path d="M 79.0095281055655 100.63252640178507 l -29.144217453256072 0.8782311846661082 a50.15744674995388,50.15744674995388 0 0,0 -0.018577213176248466,-0.8632100985427446 l 29.155016729117328 -0.37643127033323476" fill="#9fff22" stroke="none" /><line stroke="#e1ed5e" stroke-width="0.3" x1="15.007084014347285" x2="10.007500721073583" y1="101.09737516637583" y2="101.16192664675087" /><path d="M 14.007167355692545 101.11028546245083 a86.0,86.0 0 0,1 10.666146001902534,-42.60595125391555" fill="none" id="id34" stroke="none" /><text fill="#e1ed5e" style="font-size:6.75px; font-family:Arial;" text-anchor="middle"><textPath startOffset="22.20632615414155" xlink:href="#id34">October</textPath></text><path d="M 79.03285615573316 98.82574320788736 l -24.531558297792216 -1.3738804467717944 a45.57,45.57 0 0,0 0.0506031175204234,-0.7828078305709645 l 24.504274589267382 1.7959473415957705" fill="#d5ff1c" stroke="none" /><path d="M 79.12142395522702 97.74499172005258 l -24.331571313716218 -2.6279519570156524 a45.473076923076924,45.473076923076924 0 0,0 0.09075050484222863,-0.7774949050888571 l 24.2827304558704 3.0463906004293713" fill="#d6ff1c" stroke="none" /><path d="M 79.21141760316559 97.0276538004421 l -36.052199241279375 -5.154734236079456 a57.418846153846154,57.418846153846154 0 0,0 0.1483159052076925,-0.9772165038479298 l 35.95812744263238 5.774549852319478" fill="#51ff2b" stroke="none" /><path d="M 79.54389044137918 95.25157060432595 l -16.61665514915662 -3.8571857244859977 a38.05846153846154,38.05846153846154 0 0,0 0.15362424814270803,-0.636871687854201 l 16.5477981007531 4.142642643999595" fill="#ffcc13" stroke="none" /><path d="M 80.02781315780177 93.51064311812611 l -48.670683012372294 -15.81406353982807 a72.17538461538462,72.17538461538462 0 0,0 0.3940869010982469,-1.1782696739562035 l 48.391258817502276 16.649506316706596" fill="#3effb5" stroke="none" /><path d="M 80.52162464483688 92.15188598940014 l -11.282474340336794 -4.54586911537053 a33.16384615384615,33.16384615384615 0 0,0 0.2178995975558707,-0.5276611591225784 l 11.202553055894723 4.739404844946419" fill="#ff8a0c" stroke="none" /><path d="M 81.26839172434947 90.50648371742162 l -46.4687974530561 -23.55122308562713 a73.09615384615384,73.09615384615384 0 0,0 0.5784710115003723,-1.1174218705938321 l 46.056517008395616 24.347617678481296" fill="#3fffbf" stroke="none" /><line stroke="#e1ed5e" stroke-width="0.3" x1="26.266209847984257" x2="21.92892807433627" y1="57.711370442889674" y2="55.22380399835377" /><path d="M 25.39875349325466 57.213857153982495 a86.0,86.0 0 0,1 29.58750427330802,-30.492523968695096" fill="none" id="id35" stroke="none" /><text fill="#e1ed5e" style="font-size:6.75px; font-family:Arial;" text-anchor="middle"><textPath startOffset="21.46611528233685" xlink:href="#id35">November</textPath></text><path d="M 82.15384107792192 88.93136811851018 l -10.76947051874635 -6.67949362386828 a33.67269230769231,33.67269230769231 0 0,0 0.30974451971176215,-0.489941444876706 l 10.652898402788626 6.863882716459202" fill="#ff910d" stroke="none" /><path d="M 83.17141714833178 87.43820079747576 l -2.000012346602107 -1.4929215206076878 a23.49576923076923,23.49576923076923 0 0,0 0.24471857303386946,-0.3220209565238822 l 1.9740178333441263 1.5271272530125966" fill="#ff0000" stroke="none" /><path d="M 85.05521093208273 85.24692304244772 l -5.466344001380512 -5.396221610243165 a28.681153846153848,28.681153846153848 0 0,0 0.3498611821561042,-0.34835876705440516 l 5.372647019057095 5.489516227947682" fill="#ff4c07" stroke="none" /><path d="M 86.37877921826538 84.01681056812374 l -8.314183607928015 -9.75589293399524 a33.81807692307692,33.81807692307692 0 0,0 0.44630595875084805,-0.37376840538157985 l 8.145020112218056 9.897562496770632" fill="#ff930d" stroke="none" /><path d="M 88.09926311788651 82.69761687909137 l -7.085515651350646 -10.301572719679445 a33.503076923076925,33.503076923076925 0 0,0 0.4779697413852593,-0.322727302994283 l 6.907141215558847 10.422011934972394" fill="#ff8f0d" stroke="none" /><line stroke="#e1ed5e" stroke-width="0.3" x1="56.762969772571076" x2="54.21961505331055" y1="26.818313649435495" y2="22.513508569990535" /><path d="M 56.25429882871897 25.957352633546506 a86.0,86.0 0 0,1 42.265352541879196,-11.944610805530505" fill="none" id="id36" stroke="none" /><text fill="#e1ed5e" style="font-size:6.75px; font-family:Arial;" text-anchor="middle"><textPath startOffset="22.20632615414155" xlink:href="#id36">December</textPath></text><path d="M 89.63071344664047 81.73862282372117 l -6.197642809200271 -10.914684666129732 a33.55153846153846,33.55153846153846 0 0,0 0.5046725130748952,-0.28084970712884355 l 6.008846207053332 11.01974977081876" fill="#ff900d" stroke="none" /><path d="M 91.23893434514133 80.91482961587045 l -1.2636152386815394 -2.7526688054033004 a24.028846153846153,24.028846153846153 0 0,0 0.37738776829282544,-0.16932289104358708 l 1.2160453519219394 2.7740120269634163" fill="#ff0801" stroke="none" /><path d="M 99.27714615592234 79.0124445844662 l -0.5446425694415922 -15.81331579193489 a36.82269230769231,36.82269230769231 0 0,0 0.6336542962102102,-0.016365421008839382 l 0.27236163803650293 15.820348005086089" fill="#ffbc11" stroke="none" /></svg>