<?xml version="1.0" encoding="utf-8" ?>
<svg baseProfile="full" height="200mm" version="1.1" viewBox="0,0,200,200" width="200mm" xmlns="http://www.w3.org/2000/svg" xmlns:ev="http://www.w3.org/2001/xml-events" xmlns:xlink="http://www.w3.org/1999/xlink"><defs /><rect fill="#1a1a1a" height="200" width="200" x="0" y="0" /><text alignment-baseline="middle" fill="#e1ed5e" style="dominant-baseline: central; font-size:9.0px; font-family:Arial;" text-anchor="middle" x="100.0" y="100.0">2024</text><line stroke="#e1ed5e" stroke-width="0.3" x1="100.0" x2="100.0" y1="15.0" y2="10.0" /><path d="M 100.0 14.0 a86.0,86.0 0 0,1 42.35913384403234,11.155469271406648" fill="none" id="id37" stroke="none" /><text fill="#e1ed5e" style="font-size:6.75px; font-family:Arial;" text-anchor="middle"><textPath startOffset="22.145653131862478" xlink:href="#id37">January</textPath></text><line stroke="#e1ed5e" stroke-width="0.3" x1="143.13028292997686" x2="145.6673583964461" y1="26.7553504044142" y2="22.446841604673864" /><path d="M 143.63769802327073 25.89364864446614 a86.0,86.0 0 0,1 29.32050498858742,28.57503671076993" fill="none" id="id38" stroke="none" /><text fill="#e1ed5e" style="font-size:6.75px; font-family:Arial;" text-anchor="middle"><textPath startOffset="20.669276256404974" xlink:href="#id38">February</textPath></text><path d="M 113.31354834802062 83.75963576809568 l 5.428105189611999 -6.621405733768582 a29.561970558269643,29.561970558269643 0 0,0 0.38969105634664375,0.32509413904706586 l -5.540970580120535 6.527249410809646" fill="#ff5407" stroke="none" /><path d="M 113.86319453409587 84.22622945171908 l 7.804531986180028 -8.880124742096589 a32.822323585425295,32.822323585425295 0 0,0 0.4200241070630359,0.3755881465329387 l -7.95582112006644 8.744841065680266" fill="#ff820b" stroke="none" /><path d="M 114.65682725009322 84.96080404539774 l 10.97774035633505 -11.264128691741117 a36.72868012629199,36.72868012629199 0 0,0 0.4477542321568009,0.44392729590334634 l -11.169486508621812 11.074021385609111" fill="#ffb710" stroke="none" /><path d="M 117.01052211995028 87.68569379921539 l 12.122658645915754 -8.775869986866214 a35.96578586883346,35.96578586883346 0 0,0 0.3577480779763719,0.5032174736929894 l -12.271521822422088 8.56647528646372" fill="#ffac10" stroke="none" /><line stroke="#e1ed5e" stroke-width="0.3" x1="172.87174338648825" x2="177.1583165268699" y1="56.24261187166439" y2="53.66864786411523" /><path d="M 173.72905801456457 55.72781907015455 a86.0,86.0 0 0,1 12.242430191666344,42.057860355516425" fill="none" id="id39" stroke="none" /><text fill="#e1ed5e" style="font-size:6.75px; font-family:Arial;" text-anchor="middle"><textPath startOffset="22.145653131862474" xlink:href="#id39">March</textPath></text><path d="M 119.4528033332814 92.08871423366111 l 8.471580333356918 -3.4453179709588717 a30.14537529385929,30.14537529385929 0 0,0 0.19083648262900524,0.4810325998422651 l -8.529475490952048 3.2993843539030414" fill="#ff5c08" stroke="none" /><path d="M 119.83427380445688 93.10060997987247 l 13.96624739255343 -4.858185826655416 a35.78709017204944,35.78709017204944 0 0,0 0.19685383973219292,0.5819633985331938 l -14.047586653857989 4.617720753648061" fill="#ffaa0f" stroke="none" /><path d="M 120.16314734710363 94.1308016681162 l 14.88583629330884 -4.3330499964795255 a36.50365906562647,36.50365906562647 0 0,0 0.16997061086820522,0.6031657354437298 l -14.958025396251628 4.0768763371327825" fill="#ffb410" stroke="none" /><path d="M 120.43855184770803 95.1765574152323 l 14.249644532958284 -3.3628773100077005 a35.64108305822464,35.64108305822464 0 0,0 0.13541768144606647,0.5966752906904396 l -14.305273075962017 3.117767685378235" fill="#ffa80f" stroke="none" /><path d="M 120.51834098615036 95.52812308129327 l 17.252399106312566 -3.7600800867824327 a38.657391573573726,38.657391573573726 0 0,0 0.13574688324734094,0.6495979772634476 l -17.314403700384275 3.463365658233581" fill="#ffd013" stroke="none" /><path d="M 120.93736805541906 98.37931529534042 l 59.811519100219904 -4.629789852841195 a80.99043899787233,80.99043899787233 0 0,0 0.09539917353855792,1.3870830460100974 l -59.882182234923526 3.6023633826767636" fill="#49efff" stroke="none" /><line stroke="#e1ed5e" stroke-width="0.3" x1="184.99686870605535" x2="189.99668451229388" y1="99.2704041080226" y2="99.22748670261217" /><path d="M 185.99683186730306 99.26182062694052 a86.0,86.0 0 0,1 -10.086455211305974,41.156179273409016" fill="none" id="id40" stroke="none" /><text fill="#e1ed5e" style="font-size:6.75px; font-family:Arial;" text-anchor="middle"><textPath startOffset="21.40746469413373" xlink:href="#id40">April</textPath></text><path d="M 120.99922638620191 99.81974689727618 l 14.593057697769163 -0.12526384924251963 a35.59359530761172,35.59359530761172 0 0,0 0.0,0.6110339039326912 l -14.593057697769163 -0.12526384924251785" fill="#ffa70f" stroke="none" /><path d="M 120.93736805541906 101.62068470465957 l 14.62274305596024 1.1318927932218252 a35.666485460940564,35.666485460940564 0 0,0 -0.052491516985779585,0.6100309948405703 l -14.60115791627672 -1.382744835438053" fill="#ffa80f" stroke="none" /><path d="M 120.82617615685814 102.69636545807757 l 28.546292081756913 3.6958890266610833 a49.784551191817656,49.784551191817656 0 0,0 -0.1170066948644784,0.8466021572194988 l -28.478640870337223 -4.185379492080667" fill="#a6ff21" stroke="none" /><path d="M 120.43855184770803 104.8234425847677 l 28.654416444900296 6.7623642590656114 a50.44155485313336,50.44155485313336 0 0,0 -0.20611974230053876,0.8410388871207473 l -28.53410917608346 -7.253258970794459" fill="#9eff22" stroke="none" /><path d="M 120.16314734710363 105.8691983318838 l 13.833549878612207 4.026744757347864 a35.40769848327207,35.40769848327207 0 0,0 -0.17488651366127997,0.5821403252224582 l -13.762387044947298 -4.263622686161046" fill="#ffa50f" stroke="none" /><path d="M 119.83427380445688 106.89939002012753 l 56.95489851433114 19.811870214217436 a81.30232720353963,81.30232720353963 0 0,0 -0.4698493621168218,1.3142522881181988 l -56.60640898217038 -20.786657458716558" fill="#4aecff" stroke="none" /><path d="M 119.0197475246899 108.90220220490707 l 26.168295416278024 12.248083569513522 a49.892823263215114,49.892823263215114 0 0,0 -0.3697313418426906,0.7725963029463295 l -25.95418481647542 -12.695492374524955" fill="#a5ff21" stroke="none" /><line stroke="#e1ed5e" stroke-width="0.3" x1="174.33088141563837" x2="178.70328620479359" y1="141.23008692659167" y2="143.65538615756765" /><path d="M 175.20536237346943 141.71514677278685 a86.0,86.0 0 0,1 -30.301960400862466,31.631185727798858" fill="none" id="id41" stroke="none" /><text fill="#e1ed5e" style="font-size:6.75px; font-family:Arial;" text-anchor="middle"><textPath startOffset="22.145653131862474" xlink:href="#id41">May</textPath></text><path d="M 117.81537515405839 111.11811171558189 l 24.21494654042146 15.111917570925758 a49.54354022587114,49.54354022587114 0 0,0 -0.4564665965679584,0.7176413068912869 l -23.951962252227613 -15.52537255249572" fill="#a9ff21" stroke="none" /><path d="M 116.57777611688842 112.89097897827486 l 28.251410094204445 21.968467366379677 a56.78764773966858,56.78764773966858 0 0,0 -0.6050144344888431,0.7644159737144164 l -27.870129229074042 -22.450203284008776" fill="#59ff2a" stroke="none" /><path d="M 115.89218393027572 113.72728997021213 l 11.093651963781259 9.582432345583634 a35.659199280697266,35.659199280697266 0 0,0 -0.4041188046143769,0.4598130165853898 l -10.927522095208296 -9.771457639980317" fill="#ffa80f" stroke="none" /><path d="M 115.16444852881244 114.52719865689866 l 21.147901945463136 20.259211678857906 a50.28599348739421,50.28599348739421 0 0,0 -0.6025056989844255,0.6182239250130824 l -20.7970094453279 -20.619258295938725" fill="#a0ff22" stroke="none" /><path d="M 114.65682725009322 115.03919595460226 l 6.379221421842836 6.545643157544939 a30.140016974536394,30.140016974536394 0 0,0 -0.37363217595039794,0.3579311726587278 l -6.2659167600271255 -6.654186460509247" fill="#ff5c08" stroke="none" /><path d="M 113.86319453409587 115.77377054828091 l 41.58958360228761 47.32131164484274 a84.0,84.0 0 0,0 -1.0912820809485684,0.9426234701411293 l -40.771122041576184 -48.02827924744859" fill="#4dd2ff" stroke="none" /><path d="M 112.7482090630111 116.68781488649013 l 6.219283476067636 8.141241711854185 a31.244964790887394,31.244964790887394 0 0,0 -0.4290186766209868,0.32194361307399144 l -6.078611810535882 -8.246804352192191" fill="#ff6c09" stroke="none" /><path d="M 112.45986205192187 116.90419585922612 l 12.18018475743985 16.524759895681612 a41.528628554662326,41.528628554662326 0 0,0 -0.5774832452898704,0.41805333535188677 l -11.894720501776012 -16.731414002406577" fill="#fff517" stroke="none" /><path d="M 111.5731344415666 117.5232005979908 l 15.967958176507816 24.17752387480234 a49.97461559785289,49.97461559785289 0 0,0 -0.7199066305134976,0.46663478023369503 l -15.550565913737309 -24.44807249673993" fill="#a4ff21" stroke="none" /><path d="M 110.96478420261333 117.91015095944535 l 16.774394993008897 27.399713576355587 a53.12669655361109,53.12669655361109 0 0,0 -0.781891507477815,0.4695033846726966 l -16.301570728973648 -27.683630961564205" fill="#80ff25" stroke="none" /><line stroke="#e1ed5e" stroke-width="0.3" x1="143.1302829299769" x2="145.66735839644613" y1="173.24464959558577" y2="177.55315839532614" /><path d="M 143.63769802327073 174.10635135553383 a86.0,86.0 0 0,1 -40.68552437913181,11.842963189579606" fill="none" id="id42" stroke="none" /><text fill="#e1ed5e" style="font-size:6.75px; font-family:Arial;" text-anchor="middle"><textPath startOffset="21.407464694133747" xlink:href="#id42">June</textPath></text><path d="M 109.06512990194946 118.94263497670748 l 8.619137253026063 18.010681872645073 a40.96682720173958,40.96682720173958 0 0,0 -0.6369586399163693,0.29812880540802933 l -8.308689899238187 -18.155986909623635" fill="#ffee16" stroke="none" /><path d="M 107.74402155503746 119.51999308798841 l 22.07533962262534 55.64427652817379 a80.86322852802148,80.86322852802148 0 0,0 -1.2946885893069215,0.5008133594225553 l -21.116878770824886 -56.015029775734384" fill="#49f0ff" stroke="none" /><path d="M 103.2317021107853 120.74984581791261 l 2.3090706401183945 14.82588992507191 a36.00462659620044,36.00462659620044 0 0,0 -0.6115212566111671,0.08987256583082569 l -2.0542242778995417 -14.863343564201617" fill="#ffad10" stroke="none" /><line stroke="#e1ed5e" stroke-width="0.3" x1="101.45913802915013" x2="101.54496967792366" y1="184.9874750549273" y2="189.98673829345242" /><path d="M 101.47630435890484 185.9873277026323 a86.0,86.0 0 0,1 -42.54439059252881,-10.42667462771756" fill="none" id="id43" stroke="none" /><text fill="#e1ed5e" style="font-size:6.75px; font-family:Arial;" text-anchor="middle"><textPath startOffset="22.145653131862474" xlink:href="#id43">July</textPath></text><path d="M 99.63950707515114 120.99690560180557 l -0.25109323941467593 14.624922382185664 a35.627077715655815,35.627077715655815 0 0,0 -0.6114059270137738,-0.015747647873740177 l 0.5021124804991937 -14.618457016961877" fill="#ffa80f" stroke="none" /><path d="M 97.84075906011543 120.88869738790638 l -3.1451536536694937 30.4265085458607 a51.588632100774376,51.588632100774376 0 0,0 -0.8801121317729522,-0.09861840010339322 l 3.6670016870432454 -30.368034385250333" fill="#91ff24" stroke="none" /><path d="M 95.70440661134978 120.55596938700252 l -1.7636805422893684 8.439849854397941 a29.62215951024052,29.62215951024052 0 0,0 -0.49685894668617075,-0.10828809488245526 l 1.9083019055946757 -8.408330301381767" fill="#ff5507" stroke="none" /><path d="M 95.00130118170881 120.39639698878247 l -3.8369700008583845 15.656146972725598 a37.119468875216455,37.119468875216455 0 0,0 -0.617587902061235,-0.15698842964526286 l 4.105163196144998 -15.58797331124507" fill="#ffbc11" stroke="none" /><path d="M 92.25597844496254 119.51999308798841 l -3.2296006573039095 8.140703387702564 a29.757931950649642,29.757931950649642 0 0,0 -0.4732156485294233,-0.19245268460688045 l 3.368870767023774 -8.084063446516392" fill="#ff5708" stroke="none" /><path d="M 91.26138138417905 119.09545874513695 l -6.3983548322346016 13.981560027632046 a36.376051683233186,36.376051683233186 0 0,0 -0.5655805437795058,-0.2647202523246184 l 6.637424089885597 -13.869663543736902" fill="#ffb210" stroke="none" /><path d="M 90.6110303473126 118.78422872680471 l -3.9270122976313977 7.856655196512338 a29.783419406053234,29.783419406053234 0 0,0 -0.45536405788433904,-0.23251213255311598 l 4.061303577229319 -7.788085112286388" fill="#ff5708" stroke="none" /><path d="M 89.97174638481275 118.45085714620012 l -6.837032104937946 12.579369002110983 a35.31731582718014,35.31731582718014 0 0,0 -0.5301899558688116,-0.29408743111551033 l 7.0519662489628585 -12.460148655562325" fill="#ffa40f" stroke="none" /><line stroke="#e1ed5e" stroke-width="0.3" x1="58.13341422392154" x2="55.670673884152215" y1="173.97424548756322" y2="178.32567169271397" /><path d="M 57.64086615596767 174.84453072859336 a86.0,86.0 0 0,1 -31.369924170532244,-30.572349798747897" fill="none" id="id44" stroke="none" /><text fill="#e1ed5e" style="font-size:6.75px; font-family:Arial;" text-anchor="middle"><textPath startOffset="22.145653131862474" xlink:href="#id44">August</textPath></text><path d="M 88.72937992617639 117.7192867562869 l -15.628881728569015 24.57119796556647 a50.120537658990024,50.120537658990024 0 0,0 -0.7220087028975232,-0.46799731815650597 l 16.04837606372355 -24.29928680570607" fill="#a2ff22" stroke="none" /><path d="M 88.1277618465304 117.32195027204791 l -4.91882548270343 7.176713380144807 a29.70057808826759,29.70057808826759 0 0,0 -0.41807793704137153,-0.29185086962374324 l 5.041298510918566 -7.091217694715934" fill="#ff5607" stroke="none" /><path d="M 87.54013794807813 116.9041958592261 l -10.37580950850526 14.076778330201474 a38.487513005410975,38.487513005410975 0 0,0 -0.5284647304461078,-0.39656978582379543 l 10.615927227862134 -13.896589517113664" fill="#ffce13" stroke="none" /><path d="M 86.40962598614128 116.0094264158162 l -5.580968314771734 6.574366641655888 a29.623775511306157,29.623775511306157 0 0,0 -0.3848558974467961,-0.33242935798986506 l 5.693003691981393 -6.4775931512013" fill="#ff5507" stroke="none" /><path d="M 86.13680546590413 115.77377054828092 l -9.811120206406214 11.16325379239492 a35.861908186298685,35.861908186298685 0 0,0 -0.4589213778337006,-0.4103703259085381 l 10.001306611063285 -10.993187936603" fill="#ffab0f" stroke="none" /><path d="M 85.86807049272751 115.53346607816431 l -10.229907686988073 11.24446056405859 a36.20160862083242,36.20160862083242 0 0,0 -0.4560889462674232,-0.42214911965252 l 10.421426404569463 -11.067193698273691" fill="#ffaf10" stroke="none" /><path d="M 85.60350026404147 115.28858382429668 l -19.73290807054168 20.955664548104163 a49.78415427927523,49.78415427927523 0 0,0 -0.6171516727057804,-0.5912173419165135 l 20.089732229112773 -20.61383507588207" fill="#a6ff21" stroke="none" /><path d="M 84.58840730492382 114.26474011684316 l -10.840023849885077 10.033364243294246 a35.77073170512188,35.77073170512188 0 0,0 -0.4132410359157539,-0.45422428764589406 l 11.01066258664271 -9.845802380090678" fill="#ffaa0f" stroke="none" /><path d="M 84.3458050057657 113.99807769240083 l -10.836033740500737 9.689648189055623 a35.53646825239677,35.53646825239677 0 0,0 -0.4027279176217697,-0.45823044250940803 l 11.000772722081098 -9.502205468734914" fill="#ffa70f" stroke="none" /><path d="M 83.8745106332314 113.45245675266167 l -13.182469563399025 10.997284960564325 a38.167346338144284,38.167346338144284 0 0,0 -0.4153937336573194,-0.5067128129856153 l 13.369310116294974 -10.769369865880215" fill="#ffc912" stroke="none" /><path d="M 83.20337586046588 112.60449989151573 l -16.053677578419116 12.046978941402015 a41.071130147712665,41.071130147712665 0 0,0 -0.41833484723835673,-0.5675515638125201 l 16.2581144452413 -11.769621068320614" fill="#ffef16" stroke="none" /><path d="M 82.98947788004972 112.3143062007846 l -23.765465067911144 17.204363968762383 a50.33917976808067,50.33917976808067 0 0,0 -0.5007187907589585,-0.7043236859345852 l 24.057298957200064 -16.793863056118294" fill="#9fff22" stroke="none" /><path d="M 82.18462484594161 111.11811171558189 l -19.409188979857337 12.112769420841335 a43.878719367532014,43.878719367532014 0 0,0 -0.3933038411257433,-0.642432266547745 l 19.614260785438486 -11.777800038169033" fill="#ecff1a" stroke="none" /><line stroke="#e1ed5e" stroke-width="0.3" x1="26.387840678322732" x2="22.057713659400548" y1="142.50000000000003" y2="145.00000000000006" /><path d="M 25.521815274538298 143.00000000000003 a86.0,86.0 0 0,1 -11.493303480769221,-40.785679425670985" fill="none" id="id45" stroke="none" /><text fill="#e1ed5e" style="font-size:6.75px; font-family:Arial;" text-anchor="middle"><textPath startOffset="21.40746469413373" xlink:href="#id45">September</textPath></text><path d="M 81.81346652052679 110.50000000000001 l -8.376412776791199 4.836124171523825 a30.67224834304764,30.67224834304764 0 0,0 -0.2593508535954083,-0.4582481077842683 l 8.458196995407986 -4.691619293640435" fill="#ff6309" stroke="none" /><path d="M 80.68587082218212 108.24405325689762 l -2.628010780691055 1.1217415310963517 a23.857401743895107,23.857401743895107 0 0,0 -0.15754309706611577,-0.37804608140796064 l 2.6468797222936566 -1.0764629402471095" fill="#ff0000" stroke="none" /><path d="M 79.83685265289637 105.86919833188381 l -30.109051012872953 8.764305935836102 a52.35869913489266,52.35869913489266 0 0,0 -0.24379583592492604,-0.8651454149788014 l 30.255065340872452 -8.246152596954305" fill="#89ff24" stroke="none" /><path d="M 79.48165901384964 104.47187691870673 l -27.856784154669835 6.071256451715472 a49.51070988843247,49.51070988843247 0 0,0 -0.1738587183754128,-0.8319769049908875 l 27.956900583869615 -5.592163095439176" fill="#a9ff21" stroke="none" /><path d="M 79.34024301695615 103.76489593502545 l -31.444714058211716 5.7302743799436975 a52.96257321731366,52.96257321731366 0 0,0 -0.15531951131757926,-0.8958416667258587 l 31.53844838702153 -5.189639680297247" fill="#82ff25" stroke="none" /><path d="M 79.2786578344484 103.40968896794605 l -34.53526566256373 5.682764822564996 a55.99969129024477,55.99969129024477 0 0,0 -0.14794187207144932,-0.949892945036935 l 34.627729026773444 -5.089083695596612" fill="#61ff29" stroke="none" /><path d="M 79.13060592940153 102.33845913500099 l -43.011865582629405 4.819569252699903 a64.28104468101192,64.28104468101192 0 0,0 -0.11346402548115414,-1.0976615202637954 l 43.08826200059222 -4.080503210153177" fill="#34ff5a" stroke="none" /><path d="M 79.0935383218832 101.97986365728391 l -28.758145063728648 2.723426237265792 a49.8868128732868,49.8868128732868 0 0,0 -0.07342003147947634,-0.8532520570282617 l 28.800658717905865 -2.229353132861868" fill="#a5ff21" stroke="none" /><path d="M 79.03789590574601 101.26102812881392 l -28.5718084492188 1.718809046245714 a49.62346140138028,49.62346140138028 0 0,0 -0.04385393187013023,-0.8507545626084745 l 28.597103970545504 -1.2280826902605086" fill="#a8ff21" stroke="none" /><path d="M 79.00696218219943 100.54070618675478 l -17.508242967615825 0.4509502328323527 a38.51404944396243,38.51404944396243 0 0,0 -0.011349849018872385,-0.6610718047903171 l 17.513404248233364 -0.15033151207298318" fill="#ffce13" stroke="none" /><line stroke="#e1ed5e" stroke-width="0.3" x1="15.003131293944662" x2="10.003315487706104" y1="100.72959589197737" y2="100.7725132973878" /><path d="M 14.003168132696942 100.73817937305945 a86.0,86.0 0 0,1 10.791469493833615,-42.45332614584628" fill="none" id="id46" stroke="none" /><text fill="#e1ed5e" style="font-size:6.75px; font-family:Arial;" text-anchor="middle"><textPath startOffset="22.145653131862435" xlink:href="#id46">October</textPath></text><line stroke="#e1ed5e" stroke-width="0.3" x1="26.387840678322718" x2="22.05771365940052" y1="57.49999999999999" y2="54.99999999999999" /><path d="M 25.521815274538284 56.99999999999999 a86.0,86.0 0 0,1 29.574782752854787,-30.34633250058573" fill="none" id="id47" stroke="none" /><text fill="#e1ed5e" style="font-size:6.75px; font-family:Arial;" text-anchor="middle"><textPath startOffset="21.40746469413373" xlink:href="#id47">November</textPath></text><line stroke="#e1ed5e" stroke-width="0.3" x1="56.869717070023135" x2="54.33264160355391" y1="26.7553504044142" y2="22.446841604673864" /><path d="M 56.362301976729285 25.89364864446614 a86.0,86.0 0 0,1 42.16139366436587,-11.88097634709845" fill="none" id="id48" stroke="none" /><text fill="#e1ed5e" style="font-size:6.75px; font-family:Arial;" text-anchor="middle"><textPath startOffset="22.145653131862474" xlink:href="#id48">December</textPath></text></svg>