<?xml version="1.0" encoding="utf-8" ?>
<svg baseProfile="full" height="200mm" version="1.1" viewBox="0,0,200,200" width="200mm" xmlns="http://www.w3.org/2000/svg" xmlns:ev="http://www.w3.org/2001/xml-events" xmlns:xlink="http://www.w3.org/1999/xlink"><defs /><rect fill="#1a1a1a" height="200" width="200" x="0" y="0" /><text alignment-baseline="middle" fill="#e1ed5e" style="dominant-baseline: central; font-size:9.0px; font-family:Arial;" text-anchor="middle" x="100.0" y="100.0">2021</text><line stroke="#e1ed5e" stroke-width="0.3" x1="100.0" x2="100.0" y1="15.0" y2="10.0" /><path d="M 100.0 14.0 a86.0,86.0 0 0,1 42.46469731375804,11.215312516191453" fill="none" id="id1" stroke="none" /><text fill="#e1ed5e" style="font-size:6.75px; font-family:Arial;" text-anchor="middle"><textPath startOffset="22.20632615414155" xlink:href="#id1">January</textPath></text><line stroke="#e1ed5e" stroke-width="0.3" x1="143.23703022742887" x2="145.7803849466894" y1="26.81831364943548" y2="22.513508569990506" /><path d="M 143.74570117128098 25.957352633546492 a86.0,86.0 0 0,1 28.547481713284135,27.462654790039103" fill="none" id="id2" stroke="none" /><text fill="#e1ed5e" style="font-size:6.75px; font-family:Arial;" text-anchor="middle"><textPath startOffset="19.985693538727396" xlink:href="#id2">February</textPath></text><path d="M 114.16331599549186 84.49514656593476 l 4.238319379942093 -4.639769444788012 a27.2841715179633,27.2841715179633 0 0,0 0.34403016738789854,0.3197385468249373 l -4.317557431124839 4.566126311888434" fill="#ff0200" stroke="none" /><path d="M 114.42810811169701 84.74124197986012 l 8.649922437173554 -9.147912695137531 a33.589895346942996,33.589895346942996 0 0,0 0.41670145634209116,0.40086647084896054 l -8.806107137128064 8.997663137526269" fill="#ff6409" stroke="none" /><path d="M 114.94478906791727 85.2469230424477 l 13.07806962145132 -12.910303832637958 a39.376937995067465,39.376937995067465 0 0,0 0.4720277371097776,0.48646607550111925 l -13.298361622264206 12.683273561586722" fill="#ffb711" stroke="none" /><path d="M 116.60985879189232 87.15038557335679 l 14.389763372196125 -11.132118179933535 a39.193112572613956,39.193112572613956 0 0,0 0.40821317605407403,0.5371606894765127 l -14.57925248847431 10.882772714575989" fill="#ffb510" stroke="none" /><line stroke="#e1ed5e" stroke-width="0.3" x1="172.23445277983987" x2="176.4835382374775" y1="55.19839476539836" y2="52.563006222186495" /><path d="M 173.08426987136738 54.67131705675599 a86.0,86.0 0 0,1 12.851231095245387,41.99856678651699" fill="none" id="id3" stroke="none" /><text fill="#e1ed5e" style="font-size:6.75px; font-family:Arial;" text-anchor="middle"><textPath startOffset="22.20632615414155" xlink:href="#id3">March</textPath></text><path d="M 118.03404312379186 89.2402003453031 l 5.274453137361746 -3.146940409121475 a27.14191255528657,27.14191255528657 0 0,0 0.23592826444475815,0.4032778812066525 l -5.327841076276831 3.0556831155609276" fill="#ff0000" stroke="none" /><path d="M 119.7369772167798 92.82701384747503 l 17.242654634240942 -6.26647746337927 a39.34605894013074,39.34605894013074 0 0,0 0.22585934226230528,0.6385347751216609 l -17.34796705731306 5.968745061830995" fill="#ffb711" stroke="none" /><path d="M 119.85752413597 93.16781622104841 l 11.684804249813245 -4.020276118470845 a33.35707369991782,33.35707369991782 0 0,0 0.1821339210612901,0.5445572415302149 l -11.752275464646305 3.818545774018316" fill="#ff6008" stroke="none" /><path d="M 119.97218684219823 93.5106431181261 l 17.152466208167077 -5.573174110002838 a39.03517027041107,39.03517027041107 0 0,0 0.2021362241467406,0.6408270692495528 l -17.245857916082024 5.277096874326866" fill="#ffb310" stroke="none" /><path d="M 120.45610955862082 95.25157060432595 l 18.06887844344171 -4.19428695871164 a39.549296787099266,39.549296787099266 0 0,0 0.14822626891747587,0.6644692993064807 l -18.138399099361227 3.8826394898551952" fill="#ffba11" stroke="none" /><path d="M 120.53481517161879 95.60439243477599 l 18.828673475040308 -4.030397102595182 a40.255208272939925,40.255208272939925 0 0,0 0.13920769370806374,0.6788261531266689 l -18.89526046466337 3.7056952933051015" fill="#ffc412" stroke="none" /><path d="M 120.73433829027371 96.67025291283417 l 18.479935062015656 -2.9677103306752324 a39.71671190415432,39.71671190415432 0 0,0 0.10259035965569399,0.6759422898767958 l -18.52828131511065 2.6491689284063544" fill="#ffbc11" stroke="none" /><path d="M 120.78858239683441 97.02765380044208 l 18.396175494035422 -2.6302804718624277 a39.583262581366334,39.583262581366334 0 0,0 0.09063436358363505,0.675331283054365 l -18.438725856676893 2.3132308467433984" fill="#ffba11" stroke="none" /><path d="M 120.87857604477298 97.74499172005257 l 19.45229790869092 -2.1009619024801185 a40.5654270294347,40.5654270294347 0 0,0 0.06900541197234379,0.6948750814243508 l -19.48558044634549 1.7658112903513328" fill="#ffc812" stroke="none" /><path d="M 120.96714384426684 98.82574320788733 l 18.699053497843305 -1.047233268346399 a39.72835548662876,39.72835548662876 0 0,0 0.03236232443777102,0.6831175199216597 l -18.714309430514575 0.7252046418017395" fill="#ffbc11" stroke="none" /><line stroke="#e1ed5e" stroke-width="0.3" x1="184.98032266829074" x2="189.97916517819016" y1="98.17113171792111" y2="98.06355123074" /><path d="M 185.9800911702706 98.14961562048488 a86.0,86.0 0 0,1 -9.607161424134198,41.387399972396054" fill="none" id="id4" stroke="none" /><text fill="#e1ed5e" style="font-size:6.75px; font-family:Arial;" text-anchor="middle"><textPath startOffset="21.466115282336823" xlink:href="#id4">April</textPath></text><path d="M 120.9904718944345 100.63252640178507 l 19.657937057285494 0.5923718273651118 a40.666860291618846,40.666860291618846 0 0,0 -0.027107109891464795,0.6995140585635884 l -19.644827814542825 -0.9306631329427064" fill="#ffc912" stroke="none" /><path d="M 120.95626037817324 101.35467743843564 l 19.855644575968082 1.2835302314088577 a40.8970870074519,40.8970870074519 0 0,0 -0.05145913234956586,0.7021189764388248 l -19.83060888495418 -1.625122344344453" fill="#ffcd13" stroke="none" /><path d="M 120.89721153311464 102.0752229133903 l 21.21678019295043 2.1069580663910603 a42.32114054288616,42.32114054288616 0 0,0 -0.07822901303454116,0.7243035034830458 l -21.177368878414836 -2.4718578917588974" fill="#ffe015" stroke="none" /><path d="M 120.81339534386255 102.79330883721812 l 7.705422879722186 1.0341237202692886 a28.774506648281275,28.774506648281275 0 0,0 -0.07010833043754405,0.49033749979129854 l -7.686480498268041 -1.1666066920409965" fill="#ff1a02" stroke="none" /><path d="M 120.64145759157962 103.86396538481128 l 17.954608152962177 3.361002201181624 a39.26647994887804,39.26647994887804 0 0,0 -0.13008436389777078,0.6632973689631557 l -17.89409385608874 -3.6695632972127243" fill="#ffb610" stroke="none" /><path d="M 120.32669344350535 105.2749913415812 l 17.9880847296978 4.668097714195747 a39.58392661716212,39.58392661716212 0 0,0 -0.17683068104294786,0.6580527467888116 l -17.905065972313075 -4.977041394160108" fill="#ffba11" stroke="none" /><path d="M 120.23288151984713 105.62410040840565 l 22.674022282206785 6.302660244042277 a44.53369526032495,44.53369526032495 0 0,0 -0.21165669969766884,0.7368047383979491 l -22.56217294562302 -6.692022457944809" fill="#fffe18" stroke="none" /><path d="M 120.13307415673323 105.97154293290107 l 28.96756286956186 8.59188437843451 a51.2148998968126,51.2148998968126 0 0,0 -0.25796025037434284,0.8430290237035498 l -28.815375846681384 -9.089240374690117" fill="#abff21" stroke="none" /><path d="M 120.02730092923936 106.31721596034902 l 6.173103996545888 1.9471835585662771 a27.47292335524851,27.47292335524851 0 0,0 -0.14613992504847553,0.44977244144572187 l -6.138671820481165 -2.053154899989794" fill="#ff0500" stroke="none" /><path d="M 119.67450827220406 107.3425965602758 l 17.1249804614973 6.391103700875053 a39.27870789530822,39.27870789530822 0 0,0 -0.2418553152875735,0.63140791003338 l -17.01243086661622 -6.684935177741577" fill="#ffb610" stroke="none" /><path d="M 119.54520255179757 107.68017299344265 l 22.54411361797783 8.858577551756916 a45.22212738511597,45.22212738511597 0 0,0 -0.29092338987849276,0.7220479952248666 l -22.388287613841943 -9.245324914824597" fill="#f7ff18" stroke="none" /><path d="M 119.41010516605496 108.01547362559984 l 20.037715512977904 8.274647604302027 a42.67901833465751,42.67901833465751 0 0,0 -0.2862522788624747,0.6766158296746837 l -19.892312252923123 -8.618337959642874" fill="#ffe515" stroke="none" /><path d="M 119.26925614724726 108.34839909993367 l 16.922327622319525 7.331593062617361 a39.442272880340354,39.442272880340354 0 0,0 -0.27526746328932455,0.6206554612294201 l -16.793619074298928 -7.621796860339468" fill="#ffb811" stroke="none" /><path d="M 118.97047184881838 109.00673069616215 l 12.409054299298539 5.891525058444799 a34.736618802209755,34.736618802209755 0 0,0 -0.2610981978164235,0.5379396222334704 l -12.3058028448674 -6.104253636643545" fill="#ff750a" stroke="none" /><path d="M 118.81262510543309 109.33194174019688 l 29.23200294235549 14.500440362708497 a53.63085605273551,53.63085605273551 0 0,0 -0.4173536112685315,0.8234782693801729 l -28.97807066130069 -15.001472843791364" fill="#8eff24" stroke="none" /><line stroke="#e1ed5e" stroke-width="0.3" x1="174.80103733775053" x2="179.2010983576182" y1="140.37084112569926" y2="142.7455964860345" /><path d="M 175.68104954172406 140.8457921977663 a86.0,86.0 0 0,1 -30.038265399797805,32.042727171017184" fill="none" id="id5" stroke="none" /><text fill="#e1ed5e" style="font-size:6.75px; font-family:Arial;" text-anchor="middle"><textPath startOffset="22.206326154141568" xlink:href="#id5">May</textPath></text><path d="M 118.48025628344425 109.97397251340804 l 21.606534241808394 11.661254872902793 a45.552539321895765,45.552539321895765 0 0,0 -0.37835416510126013,0.6868227100550217 l -21.402603667255626 -12.03144810135562" fill="#f3ff19" stroke="none" /><path d="M 118.30583269289576 110.29060199501025 l 11.372257875618866 6.39290118870316 a34.04597389228177,34.04597389228177 0 0,0 -0.2915762115988094,0.5083877019545475 l -11.260529667867674 -6.5877087365160225" fill="#ff6a09" stroke="none" /><path d="M 117.94076556474637 110.91462005526583 l 17.327672129527098 10.541632521392398 a41.28236272342224,41.28236272342224 0 0,0 -0.3745595169935768,0.6039092037402327 l -17.14364797286556 -10.8383380564979" fill="#ffd213" stroke="none" /><path d="M 117.75023020441432 111.22182372390056 l 5.349623982679537 3.382070915781758 a27.32905051610721,27.32905051610721 0 0,0 -0.2548045323607985,0.39546229269049454 l -5.2906145869416905 -3.4736548083937078" fill="#ff0300" stroke="none" /><path d="M 116.93607887273984 112.41649034213515 l 5.047390794120487 3.7004361823711935 a27.258544700517376,27.258544700517376 0 0,0 -0.2806834846559566,0.3760213963361667 l -4.982946042769438 -3.7867704582166755" fill="#ff0200" stroke="none" /><path d="M 116.27256486870786 113.27417163493432 l 16.212324794043706 13.225031435042979 a41.92225923951425,41.92225923951425 0 0,0 -0.4609532072335095,0.5552478325632911 l -15.982275586916654 -13.50214052472004" fill="#ffdb14" stroke="none" /><path d="M 115.80600337817218 113.82643327865902 l 25.139343605472913 21.99085048345409 a54.400360804932404,54.400360804932404 0 0,0 -0.6226021569239478,0.6995001234642046 l -24.757082598900627 -22.42032477665916" fill="#85ff25" stroke="none" /><path d="M 115.07121518719521 114.62390073753431 l 13.2260458972373 12.833496167953438 a39.42896942231722,39.42896942231722 0 0,0 -0.47682649662838483,0.48302272363984794 l -13.00317877555338 -13.05925938557395" fill="#ffb811" stroke="none" /><path d="M 114.81725581225074 114.88116024355365 l 8.956682141989356 8.995310865546356 a33.69400537893566,33.69400537893566 0 0,0 -0.4145165663951558,0.40569170439000884 l -8.800515623218406 -9.148152672858938" fill="#ff6509" stroke="none" /><path d="M 114.29624159901734 115.38237550388516 l 15.032746255816445 16.174834914477564 a43.081864606558156,43.081864606558156 0 0,0 -0.5475509082522828,0.5001747723817311 l -14.752095798097299 -16.431202453445877" fill="#ffea16" stroke="none" /><path d="M 114.0293411484842 115.62618273729858 l 25.855023972943563 28.797883307734892 a59.701425653939445,59.701425653939445 0 0,0 -0.7705965698037671,0.6799618771249768 l -25.35548505023321 -29.23866832663216" fill="#49ff2c" stroke="none" /><path d="M 113.48314897796784 116.09983520530334 l 20.562476795107656 24.553054212711295 a53.02605069504638,53.02605069504638 0 0,0 -0.7048168911567138,0.5800163177323268 l -20.13678977540625 -24.9033656493008" fill="#95ff23" stroke="none" /><path d="M 113.20401910651253 116.32954008644616 l 21.324706526049937 26.372473959620446 a54.91534300538645,54.91534300538645 0 0,0 -0.7401607796443456,0.588028487747011 l -20.867588253688243 -26.735636361372585" fill="#7fff26" stroke="none" /><path d="M 112.92097659922987 116.55440617244103 l 11.437387947018415 14.653626540737593 a39.58877655592243,39.58877655592243 0 0,0 -0.5408039365706873,0.4146653974995155 l -11.183455281954235 -14.84833128006448" fill="#ffba11" stroke="none" /><path d="M 112.34349029814194 116.9893568818739 l 7.39964851570587 10.184742434858912 a33.58903398281234,33.58903398281234 0 0,0 -0.4706826088141338,0.3358195439905223 l -7.223238579042851 -10.310606240693652" fill="#ff6409" stroke="none" /><path d="M 112.04921762599082 117.19931262002967 l 10.77763352885927 15.384226106690571 a39.78381743374257,39.78381743374257 0 0,0 -0.5642541012409684,0.3880991159771246 l -10.51122254299542 -15.567466012032792" fill="#ffbd11" stroke="none" /><line stroke="#e1ed5e" stroke-width="0.3" x1="143.8653032363475" x2="146.44561519142675" y1="172.8068346515853" y2="177.08958963109032" /><path d="M 144.38136562736335 173.6633856474863 a86.0,86.0 0 0,1 -40.68145358897372,12.25698825130547" fill="none" id="id6" stroke="none" /><text fill="#e1ed5e" style="font-size:6.75px; font-family:Arial;" text-anchor="middle"><textPath startOffset="21.466115282336833" xlink:href="#id6">June</textPath></text><path d="M 110.21172684928248 118.3499491758327 l 20.808564231623354 37.39192221922463 a63.791964112788044,63.791964112788044 0 0,0 -0.9641006759758448,0.5257045586820576 l -20.16184074377886 -37.74456742966646" fill="#32ff45" stroke="none" /><path d="M 109.89434966115114 118.52300852407294 l 10.006596993455656 18.733144446522136 a42.2382363731949,42.2382363731949 0 0,0 -0.6442519700747906,0.33704218151460325 l -9.68265412085437 -18.902616046981457" fill="#ffdf14" stroke="none" /><path d="M 109.57404056367764 118.69057910512821 l 9.967558789746548 19.458811021917317 a42.86315518432197,42.86315518432197 0 0,0 -0.659574338200051,0.33072426571215857 l -9.631130543863737 -19.62750312853878" fill="#ffe715" stroke="none" /><path d="M 109.2508944713604 118.85261126421891 l 8.31769608888574 16.950824751394773 a39.88159230519404,39.88159230519404 0 0,0 -0.6189002720115302,0.29710974107312665 l -8.024683148873976 -17.09148876896746" fill="#ffbf11" stroke="none" /><path d="M 108.59647513512805 119.15986991738527 l 15.721742981918968 35.04070513473839 a59.40604403904677,59.40604403904677 0 0,0 -0.936576808652351,0.41056774945792185 l -15.116245498608862 -35.30613743749077" fill="#4cff2c" stroke="none" /><path d="M 108.2653958097858 119.30500536409082 l 10.245843901855828 23.930623050233557 a47.031750552614895,47.031750552614895 0 0,0 -0.7469729104330058,0.3122347371422932 l -9.83239953192536 -24.103442830395824" fill="#e0ff1b" stroke="none" /><path d="M 107.93186726928326 119.44442032107085 l 7.073093226990076 17.339195552139145 a39.7263544287994,39.7263544287994 0 0,0 -0.6353926275392658,0.2528358395072371 l -6.773579523408944 -17.45837823605245" fill="#ffbc11" stroke="none" /><path d="M 107.2578585660854 119.70592522655815 l 13.636090297953613 37.02356188775957 a60.45487414085499,60.45487414085499 0 0,0 -0.9796005302249629,0.35124989762121167 l -12.996770207098916 -37.25279932642074" fill="#41ff2d" stroke="none" /><path d="M 106.91757812671514 119.82793768551818 l 10.972141225686125 31.44958083804355 a54.308617773258575,54.308617773258575 0 0,0 -0.8853087441014129,0.30034479304179806 l -10.429162748647485 -31.63378861798347" fill="#86ff25" stroke="none" /><path d="M 106.57524785965236 119.94407469862006 l 9.702659673453102 29.430155856188236 a51.98831519231699,51.98831519231699 0 0,0 -0.852307963114244,0.272882094790811 l -9.194630365247919 -29.592810797638755" fill="#a2ff22" stroke="none" /><path d="M 106.2309692047433 120.05430185196036 l 5.5652061985703085 17.9115513666108 a39.75620410401163,39.75620410401163 0 0,0 -0.6552674838885633,0.19742671765449005 l -5.256063740241499 -18.00469345337102" fill="#ffbd11" stroke="none" /><path d="M 105.53697534728816 120.25689768951611 l 8.072998243418887 29.53487946170351 a51.61833446573475,51.61833446573475 0 0,0 -0.8591000581869986,0.22689613360610864 l -7.56340774242039 -29.669466944613205" fill="#a6ff21" stroke="none" /><path d="M 104.48393922423573 120.51570834832081 l 3.8916674702154594 17.805842321869637 a39.22616516138316,39.22616516138316 0 0,0 -0.6608834366418486,0.13849454979759387 l -3.5845925721442327 -17.870192852393775" fill="#ffb510" stroke="none" /><path d="M 104.13013068566511 120.58985236759428 l 4.803445924232068 23.946516457440794 a45.42352847549888,45.42352847549888 0 0,0 -0.76794398424888,0.14717829230338475 l -4.390534325411483 -24.025651948092648" fill="#f4ff19" stroke="none" /><path d="M 103.7750983002368 120.6578951692458 l 3.3081689052908834 18.102788593179362 a39.40257961143704,39.40257961143704 0 0,0 -0.6682509169175113,0.11618398759425722 l -2.9960690169013224 -18.157051159294625" fill="#ffb811" stroke="none" /><path d="M 103.06178313531738 120.77559828337769 l 4.435270043329362 30.09533485099637 a51.42040105177529,51.42040105177529 0 0,0 -0.8767702593498745,0.1215123687970945 l -3.916571192792657 -30.167221785286063" fill="#a9ff21" stroke="none" /><path d="M 102.70371172650421 120.8252237178851 l 2.4088931527225985 18.554396286467995 a39.710114584804955,39.710114584804955 0 0,0 -0.6786129119987582,0.08217057302563953 l -2.08915281767246 -18.593112388218984" fill="#ffbc11" stroke="none" /><path d="M 101.98527174616119 120.90594882070398 l 1.1725696150782363 12.34777073160836 a33.403320585333944,33.403320585333944 0 0,0 -0.5728759864337596,0.04943015064594128 l -0.959849310902935 -12.366125134532965" fill="#ff6108" stroke="none" /><line stroke="#e1ed5e" stroke-width="0.3" x1="102.19456741930631" x2="102.32365962044197" y1="184.97166512339345" y2="189.96999836594603" /><path d="M 102.22038585953345 185.97133177190398 a86.0,86.0 0 0,1 -42.740103519485714,-10.115201625700543" fill="none" id="id7" stroke="none" /><text fill="#e1ed5e" style="font-size:6.75px; font-family:Arial;" text-anchor="middle"><textPath startOffset="22.20632615414155" xlink:href="#id7">July</textPath></text><path d="M 100.54218724476979 120.99299961872073 l 0.7899731326346991 30.58704503319912 a51.59724467028421,51.59724467028421 0 0,0 -0.8880630530624481,0.01528881082350484 l -0.2633503896795831 -30.596111321301784" fill="#a6ff21" stroke="none" /><path d="M 100.18074693466247 120.99922214144158 l 0.15793588503317768 18.349028934351548 a39.34970862377524,39.34970862377524 0 0,0 -0.6773656393912536,0.0 l 0.15793588503316505 -18.349028934351548" fill="#ffb711" stroke="none" /><path d="M 99.81925306533755 120.99922214144158 l -0.26285162988403404 30.53816528885 a51.53929649138067,51.53929649138067 0 0,0 -0.8870656812646838,-0.015271640163511572 l 0.7884770010413857 -30.529116171407328" fill="#a7ff21" stroke="none" /><path d="M 99.09653310690486 120.98055641714683 l -0.8709886515366503 20.226337768344827 a41.245082384378634,41.245082384378634 0 0,0 -0.7090460409537768,-0.036649581304828954 l 1.219022760903916 -20.208348380277798" fill="#ffd113" stroke="none" /><path d="M 98.73552117531835 120.96189622390904 l -1.1168647243425427 18.514823649741523 a39.54847922589636,39.54847922589636 0 0,0 -0.6791740173056714,-0.04683981667673084 l 1.435401502427144 -18.492855488548507" fill="#ffba11" stroke="none" /><path d="M 98.37488393609728 120.93702456842531 l -0.9723365574007748 12.527003358879336 a33.564682707264524,33.564682707264524 0 0,0 -0.5756433904868349,-0.04966893391226958 l 1.1878242656291513 -12.508410172688404" fill="#ff6309" stroke="none" /><path d="M 98.01472825383883 120.90594882070398 l -1.748903997544373 18.416872922151025 a39.49972630671293,39.49972630671293 0 0,0 -0.6763244772806907,-0.07010379739408536 l 2.065661071430657 -18.38403975630118" fill="#ffb911" stroke="none" /><path d="M 97.2962882734958 120.8252237178851 l -2.390892680765182 18.415748422546077 a39.570303114743304,39.570303114743304 0 0,0 -0.674714008736203,-0.0935092136027841 l 2.7075352806882163 -18.37186464345069" fill="#ffba11" stroke="none" /><path d="M 96.22490169976321 120.6578951692458 l -3.3472838873583135 18.316831549105963 a39.62016722322579,39.62016722322579 0 0,0 -0.6698305943014378,-0.12837462760811794 l 3.662082096231446 -18.256499723149375" fill="#ffbb11" stroke="none" /><path d="M 95.51606077576429 120.51570834832081 l -3.977348726483148 18.197866293783644 a39.62744320991166,39.62744320991166 0 0,0 -0.6651369172653563,-0.15138299686970627 l 4.290005793141367 -18.126706563336253" fill="#ffbb11" stroke="none" /><path d="M 94.81253420990036 120.34920634021253 l -7.56359909471374 29.670217574585344 a51.619109101813976,51.619109101813976 0 0,0 -0.8591129506971632,-0.22689953863522172 l 8.073202488222393 -29.53562668664654" fill="#a6ff21" stroke="none" /><path d="M 94.11515582081647 120.15858648285463 l -5.197236079705844 17.803178774921832 a39.546278261689686,39.546278261689686 0 0,0 -0.6518074559104997,-0.19638423960774176 l 5.502918510056589 -17.711079166208364" fill="#ffba11" stroke="none" /><path d="M 93.42475214034765 119.94407469862007 l -5.7650406493197055 17.486550135418398 a39.41236349105703,39.41236349105703 0 0,0 -0.6424783294985088,-0.21796353214937272 l 6.06518871175544 -17.384723616370902" fill="#ffb811" stroke="none" /><path d="M 93.08242187328487 119.8279376855182 l -10.144350237155907 29.076873535494553 a51.79565580294124,51.79565580294124 0 0,0 -0.8392880244807759,-0.30093882514118286 l 10.64335782226641 -28.89794716931341" fill="#a4ff21" stroke="none" /><path d="M 92.40401165467489 119.57807347666478 l -6.586021318881699 16.974961445182124 a39.207827791315026,39.207827791315026 0 0,0 -0.6270991909182392,-0.24953570991870352 l 6.877241585841796 -16.859078890857354" fill="#ffb510" stroke="none" /><path d="M 90.7491055286396 118.85261126421891 l -5.503772224144703 11.216264389333922 a33.49384230518006,33.49384230518006 0 0,0 -0.5154002027432751,-0.25843236118817536 l 5.696026334570739 -11.119864187236445" fill="#ff6209" stroke="none" /><line stroke="#e1ed5e" stroke-width="0.3" x1="58.666819895761336" x2="56.23545636021788" y1="174.27360380694188" y2="178.64263932499728" /><path d="M 58.180547188652646 175.14741091055294 a86.0,86.0 0 0,1 -31.652253787137756,-30.449443065178592" fill="none" id="id8" stroke="none" /><text fill="#e1ed5e" style="font-size:6.75px; font-family:Arial;" text-anchor="middle"><textPath startOffset="22.20632615414155" xlink:href="#id8">August</textPath></text><path d="M 89.7882731507175 118.34994917583269 l -15.378458975621323 27.634301697475113 a52.62517400382082,52.62517400382082 0 0,0 -0.7877518256708145,-0.447306045675647 l 15.851859568213344 -27.365492486004833" fill="#9aff23" stroke="none" /><path d="M 88.8546689885994 117.79835938074946 l -10.538048576989702 16.8285693402199 a40.85576021837451,40.85576021837451 0 0,0 -0.5928330299879083,-0.3783740886622984 l 10.826163409024533 -16.644680822733797" fill="#ffcc13" stroke="none" /><path d="M 87.95078237400918 117.19931262002967 l -34.73737025656777 49.584870087471764 a81.54208646828528,81.54208646828528 0 0,0 -1.1426479846571247,-0.8152489978672155 l 35.58574556907378 -48.97957682776033" fill="#4aebff" stroke="none" /><path d="M 87.36589467227662 116.77436683061367 l -12.438037788359141 16.514046946968687 a41.674102896893395,41.674102896893395 0 0,0 -0.5692906136630989,-0.4365077667597482 l 12.720457130515728 -16.297499838381572" fill="#ffd714" stroke="none" /><path d="M 86.24171649860922 115.8653595955263 l -12.936890724743241 14.918170815082597 a40.746264509823874,40.746264509823874 0 0,0 -0.525932694565651,-0.4640744538083316 l 13.191765772215481 -14.693273219501977" fill="#ffcb12" stroke="none" /><path d="M 85.97065885151581 115.62618273729859 l -13.099512075770631 14.59051906279703 a40.608173376046636,40.608173376046636 0 0,0 -0.51611141759023,-0.47145554308507137 l 13.348723042827718 -14.362870753125382" fill="#ffc912" stroke="none" /><path d="M 85.70375840098266 115.38237550388516 l -17.46231742147545 18.788988832116157 a46.650704299526566,46.650704299526566 0 0,0 -0.5834984914245706,-0.5517342437814378 l 17.783151747290837 -18.485619951588788" fill="#e4ff1a" stroke="none" /><path d="M 85.44109423537348 115.13401014063109 l -17.929685967979978 18.637942551769846 a46.862067617911976,46.862067617911976 0 0,0 -0.5765151143264909,-0.5642413797154531 l 18.247851034682263 -18.32655106913182" fill="#e2ff1b" stroke="none" /><path d="M 85.18274418774928 114.88116024355367 l -34.86406902336572 35.01443212244933 a70.41167641077988,70.41167641077988 0 0,0 -0.8515097776225576,-0.8625749091157467 l 35.46161942604381 -34.409116719352916" fill="#3bff98" stroke="none" /><path d="M 84.43433777217949 114.09645910891817 l -22.774266885029377 20.624661975936828 a51.7252976189361,51.7252976189361 0 0,0 -0.5919865491436748,-0.6651031635692382 l 23.12591228382139 -20.229584642626723" fill="#a5ff21" stroke="none" /><path d="M 83.72743513129214 113.27417163493432 l -16.25481480251502 13.25969220731636 a41.97709326138461,41.97709326138461 0 0,0 -0.45191756620960283,-0.5638366493488665 l 16.480650280779486 -12.977927724389234" fill="#ffdb14" stroke="none" /><path d="M 83.50135304334701 112.99209946851258 l -16.11491458445914 12.689923831811635 a41.51157329220737,41.51157329220737 0 0,0 -0.4372417627994654,-0.565193919201079 l 16.330963164476675 -12.410651918497303" fill="#ffd513" stroke="none" /><path d="M 82.85270091963577 112.12312394758628 l -15.068581500098 10.653472618855924 a39.4542306061729,39.4542306061729 0 0,0 -0.3872885383701213,-0.5579180248662731 l 15.249730945630253 -10.392513331802641" fill="#ffb911" stroke="none" /><path d="M 82.05923443525364 110.91462005526583 l -15.791637892033913 9.607155671248295 a39.484406060372066,39.484406060372066 0 0,0 -0.34825081495607335,-0.5836883972158309 l 15.954669582688219 -9.333905180146353" fill="#ffb911" stroke="none" /><line stroke="#e1ed5e" stroke-width="0.3" x1="26.63291911575756" x2="22.317208475507996" y1="142.92168965132927" y2="145.44649492493687" /><path d="M 25.769776987707644 143.4266507060508 a86.0,86.0 0 0,1 -11.730757126820373,-40.83630448921669" fill="none" id="id9" stroke="none" /><text fill="#e1ed5e" style="font-size:6.75px; font-family:Arial;" text-anchor="middle"><textPath startOffset="21.46611528233685" xlink:href="#id9">September</textPath></text><path d="M 81.69416730710424 110.29060199501025 l -15.981043187554159 8.98372434989053 a39.333058788900644,39.333058788900644 0 0,0 -0.3266958733911687,-0.5930479054360753 l 16.133315470396845 -8.707305926056632" fill="#ffb711" stroke="none" /><path d="M 81.18737489456691 109.33194174019688 l -27.15579914380415 13.470546194283225 a51.313248620214765,51.313248620214765 0 0,0 -0.3856966279628651,-0.7946492931710959 l 27.383649028381733 -13.001107945146845" fill="#aaff21" stroke="none" /><path d="M 80.87730276802145 108.67885076344099 l -27.661690028916112 12.55427917480486 a51.377278035643286,51.377278035643286 0 0,0 -0.358561816112539,-0.8084622377788383 l 27.873692929759933 -12.076268600533325" fill="#a9ff21" stroke="none" /><path d="M 80.45479744820244 107.68017299344265 l -28.431567120739142 11.172017961096566 a51.54779851747355,51.54779851747355 0 0,0 -0.31740120107954484,-0.8286343791015122 l 28.619662601412198 -10.680960015161896" fill="#a7ff21" stroke="none" /><path d="M 80.20201598880116 107.00284435728193 l -40.2723597323282 14.24493862336871 a63.717458196779354,63.717458196779354 0 0,0 -0.3568455863301332,-1.0371603095917052 l 40.51159614960156 -13.54960561068771" fill="#32ff45" stroke="none" /><path d="M 79.97269907076064 106.31721596034903 l -31.46472836952007 9.924926226767811 a53.99292790848464,53.99292790848464 0 0,0 -0.2719526784154404,-0.8887570881383293 l 31.63090782044164 -9.381842166077435" fill="#8aff24" stroke="none" /><path d="M 79.4281124754447 104.21870165774334 l -29.920539405940435 6.135840915995118 a51.54320255128519,51.54320255128519 0 0,0 -0.17075543124484335,-0.8706782651440186 l 30.021724770160947 -5.619898923783144" fill="#a7ff21" stroke="none" /><path d="M 79.23777060512086 103.15116336523772 l -18.20739067727739 2.7634056722713205 a39.41590307816994,39.41590307816994 0 0,0 -0.09603581362058672,-0.6716742567859418 l 18.25226054191458 -2.449585943504978" fill="#ffb811" stroke="none" /><line stroke="#e1ed5e" stroke-width="0.3" x1="15.007084014347285" x2="10.007500721073583" y1="101.09737516637583" y2="101.16192664675087" /><path d="M 14.007167355692545 101.11028546245083 a86.0,86.0 0 0,1 10.666146001902534,-42.60595125391555" fill="none" id="id10" stroke="none" /><text fill="#e1ed5e" style="font-size:6.75px; font-family:Arial;" text-anchor="middle"><textPath startOffset="22.20632615414155" xlink:href="#id10">October</textPath></text><path d="M 79.00175016825051 100.2711162175752 l -19.454757731254226 0.25118761669196493 a40.456379252075024,40.456379252075024 0 0,0 -0.0029970523266355797,-0.6964094117058381 l 19.456199080870366 0.08373127321754859" fill="#ffc712" stroke="none" /><path d="M 79.12142395522702 97.74499172005258 l -24.39349006719337 -2.6346395444007102 a45.5353557786958,45.5353557786958 0 0,0 0.0908747945971966,-0.7785597438069485 l 24.344524919592583 3.0541430265325205" fill="#f3ff19" stroke="none" /><path d="M 79.16333360222342 97.38593545837743 l -20.400047250000387 -2.5592884747313156 a41.5599583000341,41.5599583000341 0 0,0 0.09516043209786786,-0.7090557506409446 l 20.352970818844685 2.9100625674369196" fill="#ffd614" stroke="none" /><path d="M 79.26566170972629 96.67025291283419 l -18.037628283559958 -2.896679864856712 a39.268738006095234,39.268738006095234 0 0,0 0.11292218993515049,-0.6664731571559389 l 17.985094232104583 3.206738810328479" fill="#ffb610" stroke="none" /><path d="M 79.46518482838121 95.60439243477599 l -29.653691567752762 -6.347560954538555 a51.32545059297543,51.32545059297543 0 0,0 0.19236195482460783,-0.8623209250898439 l 29.54003522592612 6.857060049178359" fill="#aaff21" stroke="none" /><path d="M 79.91906864156998 93.8553929516997 l -30.367116525825857 -9.2920988031172 a52.75696563369961,52.75696563369961 0 0,0 0.2731919383663885,-0.866093101050729 l 30.202669103691264 9.813442070594345" fill="#98ff23" stroke="none" /><path d="M 80.95270993114464 91.15688171328213 l -33.21130767986946 -15.419071227874499 a57.616099127804745,57.616099127804745 0 0,0 0.4253763844079777,-0.8959511500662646 l 32.94097310161973 15.988464793581295" fill="#60ff29" stroke="none" /><path d="M 81.26839172434947 90.50648371742162 l -17.08031827522045 -8.656612783655655 a40.14873931278454,40.14873931278454 0 0,0 0.3177305592523084,-0.613754308869651 l 16.92877828280803 8.949339814785642" fill="#ffc212" stroke="none" /><path d="M 81.6062741919709 89.86733742301443 l -26.530274432845378 -14.614892149012293 a51.28944591783333,51.28944591783333 0 0,0 0.43264444888997283,-0.7696261988103491 l 26.274772342662978 15.069401857757427" fill="#aaff21" stroke="none" /><line stroke="#e1ed5e" stroke-width="0.3" x1="26.266209847984257" x2="21.92892807433627" y1="57.711370442889674" y2="55.22380399835377" /><path d="M 25.39875349325466 57.213857153982495 a86.0,86.0 0 0,1 29.58750427330802,-30.492523968695096" fill="none" id="id11" stroke="none" /><text fill="#e1ed5e" style="font-size:6.75px; font-family:Arial;" text-anchor="middle"><textPath startOffset="21.46611528233685" xlink:href="#id11">November</textPath></text><path d="M 82.34701348167596 88.62581576622439 l -30.964609903461863 -19.951138432207053 a57.83551263678378,57.83551263678378 0 0,0 0.5464171572827344,-0.8322308180679728 l 30.616596110821206 20.481187314252693" fill="#5eff2a" stroke="none" /><path d="M 82.95767976084542 87.72973835380427 l -25.20803914969858 -18.149479156230836 a52.06201589425892,52.06201589425892 0 0,0 0.5298856792625104,-0.7227634710165589 l 24.891890857922437 18.580705070918896" fill="#a1ff22" stroke="none" /><path d="M 83.6137871275137 86.86637796730984 l -24.18694582521276 -19.385943967985227 a51.99714780236465,51.99714780236465 0 0,0 0.5657822228841436,-0.6935821064128884 l 23.849665110252225 19.799410244006197" fill="#a2ff22" stroke="none" /><path d="M 84.5562425177563 85.77008943001954 l -45.543070403996296 -41.96348069285 a82.92822437049651,82.92822437049651 0 0,0 0.9763127140644168,-1.0414623319285208 l 44.81399036796142 42.74121244165657" fill="#4cddff" stroke="none" /><path d="M 85.57189188830299 84.74124197986013 l -34.302227133734476 -36.277062753722845 a70.92662684752351,70.92662684752351 0 0,0 0.8943243627737296,-0.8311770282081103 l 33.67269488716589 36.8621443680056" fill="#3bff9e" stroke="none" /><path d="M 86.65592168130627 83.78471172551755 l -19.775328085251864 -24.030333003637388 a52.12106208253593,52.12106208253593 0 0,0 0.6976692102195013,-0.564133315022759 l 19.358755476467863 24.36717241592428" fill="#a0ff22" stroke="none" /><path d="M 87.51073957382395 83.11751280151077 l -18.333310942562882 -24.78224304179288 a51.8264474161261,51.8264474161261 0 0,0 0.7217565373138288,-0.5243868192243906 l 17.90400908889527 25.094149095833938" fill="#a4ff21" stroke="none" /><line stroke="#e1ed5e" stroke-width="0.3" x1="56.762969772571076" x2="54.21961505331055" y1="26.818313649435495" y2="22.513508569990535" /><path d="M 56.25429882871897 25.957352633546506 a86.0,86.0 0 0,1 42.265352541879196,-11.944610805530505" fill="none" id="id12" stroke="none" /><text fill="#e1ed5e" style="font-size:6.75px; font-family:Arial;" text-anchor="middle"><textPath startOffset="22.20632615414155" xlink:href="#id12">December</textPath></text><path d="M 90.26544431104013 81.39251694778311 l -21.523931409235555 -41.14272923299933 a67.43278789873999,67.43278789873999 0 0,0 1.0331329666224247,-0.5292108326061331 l 20.812537955024364 41.50713259091797" fill="#37ff74" stroke="none" /><path d="M 91.23893434514133 80.91482961587045 l -12.711850555011917 -27.6915895049194 a51.469907676951024,51.469907676951024 0 0,0 0.8083664720344139,-0.3626904726847611 l 12.233301964510728 27.906300308120688" fill="#a8ff21" stroke="none" /><path d="M 93.59665428221793 80.00007090966166 l -9.64867762153603 -30.136256380843186 a52.64318139024965,52.64318139024965 0 0,0 0.8653902972836445,-0.26888097787013976 l 9.128501951541656 30.297877493595852" fill="#9aff23" stroke="none" /><path d="M 97.83486435360386 79.11191278185805 l -2.2234204284128802 -21.450388066258512 a42.56531350559433,42.56531350559433 0 0,0 0.7294374661042861,-0.06926887674258657 l 1.853857835218358 21.48548248751628" fill="#ffe315" stroke="none" /><path d="M 98.55514903715128 79.0497635885617 l -4.334552888546145 -62.8507092343149 a84.0,84.0 0 0,0 1.4433518046415081,-0.08706692247877434 l 3.2520390350650135 62.91600942617398" fill="#4dd2ff" stroke="none" /></svg>