<?xml version="1.0" encoding="utf-8" ?>
<svg baseProfile="full" height="200mm" version="1.1" viewBox="0,0,200,200" width="200mm" xmlns="http://www.w3.org/2000/svg" xmlns:ev="http://www.w3.org/2001/xml-events" xmlns:xlink="http://www.w3.org/1999/xlink"><defs /><rect fill="#1a1a1a" height="200" width="200" x="0" y="0" /><text alignment-baseline="middle" fill="#e1ed5e" style="dominant-baseline: central; font-size:9.0px; font-family:Arial;" text-anchor="middle" x="100.0" y="100.0">2022</text><line stroke="#e1ed5e" stroke-width="0.3" x1="100.0" x2="100.0" y1="15.0" y2="10.0" /><path d="M 100.0 14.0 a86.0,86.0 0 0,1 42.46469731375804,11.215312516191453" fill="none" id="id13" stroke="none" /><text fill="#e1ed5e" style="font-size:6.75px; font-family:Arial;" text-anchor="middle"><textPath startOffset="22.20632615414155" xlink:href="#id13">January</textPath></text><path d="M 100.0 79.0 l 0.0 -15.859089430771824 a36.859089430771824,36.859089430771824 0 0,0 0.6344686339516373,0.005461071841318233 l -0.272988154679109 15.856739735539065" fill="#ff8c0c" stroke="none" /><path d="M 100.36148047927253 79.00311137660856 l 0.2647959473009054 -15.380888684754705 a36.38316786707219,36.38316786707219 0 0,0 0.6260908473520876,0.016170079439181254 l -0.5295134298478609 15.374051813173164" fill="#ff850c" stroke="none" /><path d="M 100.72285384407766 79.0124445844662 l 0.5365658161554094 -15.578812913434431 a36.588050380559395,36.588050380559395 0 0,0 0.6292433247590492,0.02709654121261902 l -0.8046499733037902 15.567268645697617" fill="#ff880c" stroke="none" /><path d="M 101.08401301168833 79.027996857942 l 0.7886641911972355 -15.25799756781197 a36.278366437084586,36.278366437084586 0 0,0 0.6233624484096852,0.03760292521707799 l -1.0511886884465327 15.242161373214588" fill="#ff840c" stroke="none" /><path d="M 103.59715602781102 79.31037775812273 l 6.636280098548105 -38.16963380757231 a59.7422399784854,59.7422399784854 0 0,0 1.0116491434567016,0.18487241466812088 l -7.292324363107707 38.04974591155345" fill="#4bff2c" stroke="none" /><path d="M 105.01212808612495 79.60689891045804 l 2.9522551301735707 -12.011990970146083 a33.369467952200175,33.369467952200175 0 0,0 0.5566203815697924,0.14189492893192668 l -3.1585844004283885 11.959393045045289" fill="#ff5808" stroke="none" /><path d="M 106.0581310904928 79.89281104454417 l 4.594184349365134 -15.248288858234073 a36.92535220772517,36.92535220772517 0 0,0 0.607008176186443,0.1886003951055249 l -4.855977898262295 15.166948328246027" fill="#ff8d0d" stroke="none" /><path d="M 108.43124777332544 80.76684994638697 l 8.434976808004254 -19.241656633595156 a42.009288035455796,42.009288035455796 0 0,0 0.6597816373606127,0.2960247885105994 l -8.764940563831647 19.093611514568025" fill="#ffd614" stroke="none" /><path d="M 110.05341064243156 81.56283822128135 l 14.393246556293947 -26.396078377555764 a51.06523740375809,51.06523740375809 0 0,0 0.768108494364994,0.4274515455006974 l -14.845479139730976 26.144411434494884" fill="#b1ff20" stroke="none" /><line stroke="#e1ed5e" stroke-width="0.3" x1="143.23703022742887" x2="145.7803849466894" y1="26.81831364943548" y2="22.513508569990506" /><path d="M 143.74570117128098 25.957352633546492 a86.0,86.0 0 0,1 28.547481713284135,27.462654790039103" fill="none" id="id14" stroke="none" /><text fill="#e1ed5e" style="font-size:6.75px; font-family:Arial;" text-anchor="middle"><textPath startOffset="19.985693538727396" xlink:href="#id14">February</textPath></text><path d="M 110.68208982089419 81.91981866633111 l 4.6305297995606844 -7.83749433404468 a30.103193047541176,30.103193047541176 0 0,0 0.44386145216629663,0.267421558530508 l -4.764753317944619 7.756626166055558" fill="#ff2503" stroke="none" /><path d="M 111.60114157652 82.49532879139004 l 16.621738865659044 -25.080124386001476 a51.08811795602155,51.08811795602155 0 0,0 0.7288457291061387,0.49211988978969395 l -17.050989289171724 24.79029258391311" fill="#b1ff20" stroke="none" /><path d="M 112.19680574252982 82.90503203632743 l 12.550340583757167 -17.590480224210552 a42.60870295243666,42.60870295243666 0 0,0 0.5933864163109644,0.43112046699060697 l -12.85127231642192 17.37184052240327" fill="#ffde14" stroke="none" /><path d="M 113.06298171725822 83.55741782278167 l 22.498512483461322 -28.31923433573711 a57.16852357134386,57.16852357134386 0 0,0 0.7652322707138351,0.6187646112465941 l -22.982648152739646 27.92776362722639" fill="#68ff28" stroke="none" /><path d="M 114.16331599549186 84.49514656593476 l 20.379315022526097 -22.30962668710393 a51.21648430418896,51.21648430418896 0 0,0 0.6457962506425813,0.6001972335543362 l -20.760319156963526 21.955524867474953" fill="#afff20" stroke="none" /><path d="M 115.92442197804982 86.31012108654704 l 11.801613029889163 -10.145589810751623 a36.56313152020752,36.56313152020752 0 0,0 0.4061805010161416,0.48078959727805837 l -11.974504144392425 9.94094126384446" fill="#ff880c" stroke="none" /><path d="M 116.38621287248628 86.86637796730983 l 48.97516502852646 -39.253811205718584 a83.76486663528888,83.76486663528888 0 0,0 0.8920795529796747,1.1328504401872097 l -49.643598662100096 38.404968371578335" fill="#4dd4ff" stroke="none" /><line stroke="#e1ed5e" stroke-width="0.3" x1="172.23445277983987" x2="176.4835382374775" y1="55.19839476539836" y2="52.563006222186495" /><path d="M 173.08426987136738 54.67131705675599 a86.0,86.0 0 0,1 12.851231095245387,41.99856678651699" fill="none" id="id15" stroke="none" /><text fill="#e1ed5e" style="font-size:6.75px; font-family:Arial;" text-anchor="middle"><textPath startOffset="22.20632615414155" xlink:href="#id15">March</textPath></text><path d="M 117.84615892207809 88.93136811851018 l 12.875948769280727 -7.985983856491102 a36.1514354061019,36.1514354061019 0 0,0 0.3234420753372665,0.5316537284869909 l -13.011506642904218 7.763162354797029" fill="#ff820b" stroke="none" /><path d="M 118.21658344932153 89.55222093294921 l 26.057711195908205 -14.944910516576833 a51.03921875012479,51.03921875012479 0 0,0 0.4305336950470755,0.7658714032480751 l -26.311102532247713 14.494155603393963" fill="#b2ff20" stroke="none" /><path d="M 118.56541770881063 90.18545643968196 l 29.06943816374711 -15.367457474262528 a53.88146870775672,53.88146870775672 0 0,0 0.42640913460512103,0.8236867247555056 l -29.329656731512348 14.864798027246678" fill="#8fff24" stroke="none" /><path d="M 119.04729006885535 91.15688171328212 l 28.09111293252385 -13.041909561404983 a51.970986919949375,51.970986919949375 0 0,0 0.3697307157604113,0.8146526225144937 l -28.311445965247607 12.556434930048427" fill="#a6ff21" stroke="none" /><path d="M 119.7369772167798 92.82701384747503 l 19.996171280979976 -7.267184742962812 a42.275780596411494,42.275780596411494 0 0,0 0.24267690986942084,0.6860803034249862 l -20.118301271659206 6.921906813111211" fill="#ffd914" stroke="none" /><path d="M 120.08093135843002 93.85539295169968 l 29.612089244670326 -9.061066393781298 a51.96738209191783,51.96738209191783 0 0,0 0.25437811531390864,0.8576365467034934 l -29.763673257095938 8.550000460331274" fill="#a6ff21" stroke="none" /><path d="M 120.28053869075195 94.5502522615342 l 29.775912619195793 -8.001326539280445 a51.8322266256295,51.8322266256295 0 0,0 0.22412172880651435,0.8636324460985624 l -29.90923067987261 7.487597667633032" fill="#a8ff21" stroke="none" /><path d="M 120.67395015179393 96.31383870115 l 29.641830721114093 -5.285132663520152 a51.10931343903728,51.10931343903728 0 0,0 0.14697125226490046,0.8674326504330108 l -29.728413834899218 4.774114224771304" fill="#b1ff20" stroke="none" /><path d="M 120.87857604477298 97.74499172005257 l 21.13770966635545 -2.282996226109472 a42.26064067020481,42.26064067020481 0 0,0 0.07188912167858198,0.7239136446276189 l -21.17387591371626 1.918807050777418" fill="#ffd914" stroke="none" /><line stroke="#e1ed5e" stroke-width="0.3" x1="184.98032266829074" x2="189.97916517819016" y1="98.17113171792111" y2="98.06355123074" /><path d="M 185.9800911702706 98.14961562048488 a86.0,86.0 0 0,1 -9.607161424134198,41.387399972396054" fill="none" id="id16" stroke="none" /><text fill="#e1ed5e" style="font-size:6.75px; font-family:Arial;" text-anchor="middle"><textPath startOffset="21.466115282336823" xlink:href="#id16">April</textPath></text><path d="M 120.99513854157772 99.54816195383933 l 30.046557403234132 -0.6466343512830873 a51.053514732392,51.053514732392 0 0,0 0.011346018565317986,0.8787616416350337 l -30.053236428917167 0.1293364515875909" fill="#b1ff20" stroke="none" /><path d="M 120.9764740272857 100.99374915477107 l 21.47507434419898 1.0173700761354765 a42.49915951754136,42.49915951754136 0 0,0 -0.040907766574404786,0.730435652469203 l -21.454380226737047 -1.3868774449401027" fill="#ffdc14" stroke="none" /><path d="M 120.89721153311464 102.0752229133903 l 15.180156087554355 1.507483794754829 a36.25482370379815,36.25482370379815 0 0,0 -0.06701565788888353,0.620481761360167 l -15.15195812816442 -1.7685618779997874" fill="#ff830c" stroke="none" /><path d="M 120.81339534386255 102.79330883721812 l 15.234728252233921 2.0446111918077885 a36.37131678956231,36.37131678956231 0 0,0 -0.08861775901494172,0.6197924001514207 l -15.197276442202378 -2.3065490639396184" fill="#ff850c" stroke="none" /><path d="M 120.70491114924044 103.5080841355445 l 29.888737958927248 5.064122550895654 a51.31471579922709,51.31471579922709 0 0,0 -0.15505244180068573,0.8696164363999426 l -29.797139074787374 -5.577857738028815" fill="#aeff20" stroke="none" /><path d="M 120.32669344350535 105.2749913415812 l 29.23377151604889 7.586472047581978 a51.20211838896891,51.20211838896891 0 0,0 -0.22873186768786838,0.8511963700099066 l -29.098851572019246 -8.088559350767433" fill="#b0ff20" stroke="none" /><path d="M 120.02730092923936 106.31721596034902 l 15.23052610341871 4.804168216424922 a36.970252272228706,36.970252272228706 0 0,0 -0.19666017431867375,0.605257780918602 l -15.145573678083789 -5.065624897321319" fill="#ff8e0d" stroke="none" /><path d="M 119.54520255179757 107.68017299344265 l 14.332901027550022 5.632029604080625 a36.39973406675534,36.39973406675534 0 0,0 -0.2341670911497514,0.5811835163303115 l -14.23383132214288 -5.87791248825375" fill="#ff850c" stroke="none" /><path d="M 119.26925614724726 108.34839909993367 l 16.914932680903586 7.32838920659982 a39.43421373324365,39.43421373324365 0 0,0 -0.2752112185342539,0.6205286441549174 l -16.786280377638057 -7.618466187247425" fill="#ffb110" stroke="none" /><path d="M 118.81262510543309 109.33194174019688 l 13.719255423341645 6.805392209327022 a36.3144158391255,36.3144158391255 0 0,0 -0.28259762582687953,0.5575919258001422 l -13.600079127728497 -7.040538346829859" fill="#ff840c" stroke="none" /><line stroke="#e1ed5e" stroke-width="0.3" x1="174.80103733775053" x2="179.2010983576182" y1="140.37084112569926" y2="142.7455964860345" /><path d="M 175.68104954172406 140.8457921977663 a86.0,86.0 0 0,1 -30.038265399797805,32.042727171017184" fill="none" id="id17" stroke="none" /><text fill="#e1ed5e" style="font-size:6.75px; font-family:Arial;" text-anchor="middle"><textPath startOffset="22.206326154141568" xlink:href="#id17">May</textPath></text><path d="M 118.12598468904814 110.60418214915192 l 7.889257381892487 4.6154249677633725 a30.140160265049985,30.140160265049985 0 0,0 -0.2658349566956022,0.44555467821996964 l -7.808641549498657 -4.750541739869446" fill="#ff2603" stroke="none" /><path d="M 117.14729908036423 112.12312394758627 l 25.290440997706998 17.880317446344247 a51.972764775533705,51.972764775533705 0 0,0 -0.5227475317477231,0.7260506008064177 l -24.978913673583673 -18.313001652601795" fill="#a6ff21" stroke="none" /><path d="M 116.498646956653 112.99209946851258 l 30.504655277701456 24.021334395592383 a59.827290656911266,59.827290656911266 0 0,0 -0.6440894660864585,0.8036006422256508 l -30.08664789956014 -24.542862871396284" fill="#4bff2c" stroke="none" /><path d="M 115.56566222782051 114.09645910891815 l 14.30413667354347 12.954005731063276 a40.29804628598013,40.29804628598013 0 0,0 -0.4700548185002613,0.5101516685278832 l -14.079035447047486 -13.198308654392495" fill="#ffbe11" stroke="none" /><path d="M 115.07121518719521 114.62390073753431 l 11.119391880544574 10.78936775191058 a36.49359003843488,36.49359003843488 0 0,0 -0.4413280626495455,0.44706299743618544 l -10.932023192839493 -10.97917124332743" fill="#ff870c" stroke="none" /><path d="M 114.55890576462653 115.13401014063108 l 6.523206333626683 6.7808853493920225 a30.409177806411495,30.409177806411495 0 0,0 -0.3803524435896498,0.35964697581653593 l -6.405518055646225 -6.892166961954479" fill="#ff2a04" stroke="none" /><path d="M 113.75828350139079 115.86535959552629 l 41.27485050417237 47.59607878657886 a84.0,84.0 0 0,0 -1.100538093691811,0.9379024391082127 l -40.449446933903516 -48.299505615910014" fill="#4dd2ff" stroke="none" /><path d="M 112.63410532772338 116.77436683061366 l 9.009763866207313 11.962309971987796 a35.97573720358145,35.97573720358145 0 0,0 -0.4978614253158467,0.3683059802629797 l -8.802517470472901 -12.115625900990546" fill="#ff7f0b" stroke="none" /><path d="M 111.7513745106137 117.40417183066458 l 17.003808273445653 25.18319884192586 a51.38623042945727,51.38623042945727 0 0,0 -0.737331969751135,0.4886634240676251 l -16.567801604954557 -25.472160287084805" fill="#adff20" stroke="none" /><path d="M 111.45004920935366 117.60387380957326 l 19.96670492745349 30.697802909767294 a57.62000012488958,57.62000012488958 0 0,0 -0.8360886954339045,0.5336313635934042 l -19.435334429972652 -31.036948702184503" fill="#63ff29" stroke="none" /><path d="M 111.1453310114006 117.79835938074945 l 15.990946679707887 25.53648837820177 a51.13009482897946,51.13009482897946 0 0,0 -0.749958700798056,0.4606858873238866 l -15.549008778977523 -25.807962732354035" fill="#b1ff20" stroke="none" /><line stroke="#e1ed5e" stroke-width="0.3" x1="143.8653032363475" x2="146.44561519142675" y1="172.8068346515853" y2="177.08958963109032" /><path d="M 144.38136562736335 173.6633856474863 a86.0,86.0 0 0,1 -40.68145358897372,12.25698825130547" fill="none" id="id18" stroke="none" /><text fill="#e1ed5e" style="font-size:6.75px; font-family:Arial;" text-anchor="middle"><textPath startOffset="21.466115282336833" xlink:href="#id18">June</textPath></text><path d="M 109.57404056367764 118.69057910512821 l 4.537776434321681 8.858712143840854 a30.953300749767315,30.953300749767315 0 0,0 -0.4763065800765518,0.2388300072127865 l -4.384615946562368 -8.935509991962942" fill="#ff3304" stroke="none" /><path d="M 108.92500713936063 119.00905698771935 l 6.4380031150557135 13.712075093082317 a36.14823050616129,36.14823050616129 0 0,0 -0.5655166960785942,0.25960097832730333 l -6.2010184232097 -13.820863141743695" fill="#ff820b" stroke="none" /><path d="M 107.59598834532513 119.57807347666477 l 6.561519090690968 16.91180884382833 a39.14008850991891,39.14008850991891 0 0,0 -0.6302109279658183,0.23829184795116584 l -6.269437941964875 -17.022248941886126" fill="#ffad10" stroke="none" /><path d="M 106.57524785965236 119.94407469862006 l 5.056240797364739 15.336614878908028 a37.148601392841385,37.148601392841385 0 0,0 -0.609022405680012,0.1949897420050555 l -4.791497046593787 -15.421377467572789" fill="#ff900d" stroke="none" /><path d="M 105.53697534728816 120.25689768951611 l 4.047858990665803 14.808999551653198 a36.35225163059734,36.35225163059734 0 0,0 -0.6050218747721474,0.15979177608557282 l -3.7923466730821582 -14.876482677042354" fill="#ff850c" stroke="none" /><path d="M 104.83641907484287 120.43548508189849 l 3.557285517163236 15.030718801059383 a36.445931112339565,36.445931112339565 0 0,0 -0.6117360168435948,0.13922912579212274 l -3.2980293509267793 -15.08972466042919" fill="#ff860c" stroke="none" /><path d="M 104.13013068566511 120.58985236759428 l 3.2126532071247254 16.015971473387904 a37.33500789303831,37.33500789303831 0 0,0 -0.6311969958214113,0.12097040651068489 l -2.9364885967316097 -16.068899078247057" fill="#ff930d" stroke="none" /><line stroke="#e1ed5e" stroke-width="0.3" x1="102.19456741930631" x2="102.32365962044197" y1="184.97166512339345" y2="189.96999836594603" /><path d="M 102.22038585953345 185.97133177190398 a86.0,86.0 0 0,1 -42.740103519485714,-10.115201625700543" fill="none" id="id19" stroke="none" /><text fill="#e1ed5e" style="font-size:6.75px; font-family:Arial;" text-anchor="middle"><textPath startOffset="22.20632615414155" xlink:href="#id19">July</textPath></text><path d="M 100.18074693466247 120.99922214144158 l 0.13224489144135532 15.364243148210797 a36.364812274435856,36.364812274435856 0 0,0 -0.625983652207611,0.0 l 0.13224489144134474 -15.364243148210797" fill="#ff850c" stroke="none" /><path d="M 98.73552117531835 120.96189622390904 l -0.9407227307526846 15.594829958876325 a36.623177676209835,36.623177676209835 0 0,0 -0.6289372232690968,-0.04337519323245558 l 1.2090227148007116 -15.576326421127584" fill="#ff890c" stroke="none" /><path d="M 98.01472825383883 120.90594882070398 l -1.7639720327313555 18.575547205939507 a39.65911443054963,39.65911443054963 0 0,0 -0.6790535617483034,-0.07038667815770655 l 2.0834581910852523 -18.54243115932604" fill="#ffb510" stroke="none" /><path d="M 97.2962882734958 120.8252237178851 l -1.974789230413754 15.210729426472664 a36.33838590562643,36.33838590562643 0 0,0 -0.6196065254868695,-0.08587181856495778 l 2.2363243470874545 -15.174483042415101" fill="#ff850c" stroke="none" /><path d="M 96.22490169976321 120.6578951692458 l -1.7772904639387894 9.725595777743 a30.886656392596045,30.886656392596045 0 0,0 -0.5221792046175132,-0.10007688736192531 l 1.9444372831279977 -9.693561692032606" fill="#ff3204" stroke="none" /><path d="M 95.51606077576429 120.51570834832081 l -3.393817276398838 15.527990445044196 a36.89454255293203,36.89454255293203 0 0,0 -0.6192658498702931,-0.14094289127396378 l 3.6606032756619933 -15.467270820192544" fill="#ff8d0d" stroke="none" /><path d="M 92.40401165467489 119.57807347666478 l -3.429390819202369 8.838990054515403 a30.480952830525617,30.480952830525617 0 0,0 -0.48751950656837256,-0.19399407291950407 l 3.5810314018126 -8.778649137189833" fill="#ff2b04" stroke="none" /><path d="M 91.40352486487194 119.15986991738527 l -5.0548039336473565 11.266174135816666 a33.34818701130499,33.34818701130499 0 0,0 -0.5217117483974733,-0.23949227534390827 l 5.2479836778122495 -11.177494790138683" fill="#ff5808" stroke="none" /><path d="M 90.10565033884886 118.52300852407294 l -3.220571947581879 6.029166512244415 a27.835417507506094,27.835417507506094 0 0,0 -0.4206822161426047,-0.22938948627827657 l 3.323876975593124 -5.972836374206373" fill="#ff0100" stroke="none" /><line stroke="#e1ed5e" stroke-width="0.3" x1="58.666819895761336" x2="56.23545636021788" y1="174.27360380694188" y2="178.64263932499728" /><path d="M 58.180547188652646 175.14741091055294 a86.0,86.0 0 0,1 -31.652253787137756,-30.449443065178592" fill="none" id="id20" stroke="none" /><text fill="#e1ed5e" style="font-size:6.75px; font-family:Arial;" text-anchor="middle"><textPath startOffset="22.20632615414155" xlink:href="#id20">August</textPath></text><path d="M 87.95078237400918 117.19931262002967 l -6.936256204928322 9.900961422080117 a33.088866250477146,33.088866250477146 0 0,0 -0.46367376618946515,-0.3308189208741384 l 7.105657298966672 -9.780098239361761" fill="#ff5407" stroke="none" /><path d="M 85.97065885151581 115.62618273729859 l -8.333985023654387 9.282572255618982 a33.47483282674693,33.47483282674693 0 0,0 -0.4254499029990668,-0.3886383990698076 l 8.49253447612031 -9.137741089962596" fill="#ff5a08" stroke="none" /><path d="M 84.9287848128048 114.62390073753433 l -12.861896790689743 12.480155025804693 a38.92156964449468,38.92156964449468 0 0,0 -0.4624131731594791,-0.4848383633542095 l 13.074816515228179 -12.256909545867982" fill="#ffaa0f" stroke="none" /><path d="M 83.28015986056508 112.70617746262583 l -12.879925814704375 9.788049511376515 a37.17709498734078,37.17709498734078 0 0,0 -0.38281561561995586,-0.5128440759567513 l 13.046502697019415 -9.564892555910458" fill="#ff910d" stroke="none" /><path d="M 82.64656182679789 111.8261652097733 l -12.987300072477767 8.85069314524673 a36.71638420006009,36.71638420006009 0 0,0 -0.3514228192742151,-0.5253294331406958 l 13.137725997162715 -8.62582679790021" fill="#ff8a0c" stroke="none" /><path d="M 82.44556493220864 111.52570212397912 l -8.446932595881217 5.545996130635131 a31.10488710280231,31.10488710280231 0 0,0 -0.2900088390445118,-0.45010015844874013 l 8.541146298302774 -5.399774372264942" fill="#ff3505" stroke="none" /><line stroke="#e1ed5e" stroke-width="0.3" x1="26.63291911575756" x2="22.317208475507996" y1="142.92168965132927" y2="145.44649492493687" /><path d="M 25.769776987707644 143.4266507060508 a86.0,86.0 0 0,1 -11.730757126820373,-40.83630448921669" fill="none" id="id21" stroke="none" /><text fill="#e1ed5e" style="font-size:6.75px; font-family:Arial;" text-anchor="middle"><textPath startOffset="21.46611528233685" xlink:href="#id21">September</textPath></text><path d="M 81.51974371655577 109.97397251340807 l -18.854568409038503 10.175992376923551 a42.42534878937374,42.42534878937374 0 0,0 -0.34131696503090764,-0.645643069181802 l 19.026937882294295 -9.849934292655623" fill="#ffdb14" stroke="none" /><path d="M 80.87730276802145 108.67885076344099 l -14.111489482792752 6.404510293988158 a36.49683475838762,36.49683475838762 0 0,0 -0.2547112625205243,-0.5743066551743042 l 14.219641830044557 -6.160655302321158" fill="#ff870c" stroke="none" /><path d="M 79.67330655649465 105.27499134158121 l -29.106417998404034 7.553422466509507 a51.07054638105847,51.07054638105847 0 0,0 -0.21349600690601234,-0.8528104210762611 l 29.232125319605107 -7.051284206035854" fill="#b1ff20" stroke="none" /><path d="M 79.4281124754447 104.21870165774334 l -6.616196132138417 1.3567912792295318 a27.753882870935552,27.753882870935552 0 0,0 -0.0919447376912614,-0.4688242366203908 l 6.6385708028053445 -1.2427033155411862" fill="#ff0000" stroke="none" /><path d="M 79.07016306316243 101.71520430193888 l -9.118746235102366 0.7472830685655489 a30.14931499538399,30.14931499538399 0 0,0 -0.037935650290047786,-0.5176018081931891 l 9.130258444056748 -0.5902081238755992" fill="#ff2603" stroke="none" /><line stroke="#e1ed5e" stroke-width="0.3" x1="15.007084014347285" x2="10.007500721073583" y1="101.09737516637583" y2="101.16192664675087" /><path d="M 14.007167355692545 101.11028546245083 a86.0,86.0 0 0,1 10.666146001902534,-42.60595125391555" fill="none" id="id22" stroke="none" /><text fill="#e1ed5e" style="font-size:6.75px; font-family:Arial;" text-anchor="middle"><textPath startOffset="22.20632615414155" xlink:href="#id22">October</textPath></text><path d="M 79.01574976396665 99.18683210126434 l -8.945125619970108 -0.34663563970596917 a29.951839398903445,29.951839398903445 0 0,0 0.024398471375474667,-0.5150131687216858 l 8.937833540361135 0.5005599150506641" fill="#ff2303" stroke="none" /><path d="M 79.12142395522702 97.74499172005258 l -16.50270127065265 -1.7823882206821842 a37.59867636281963,37.59867636281963 0 0,0 0.07503558351895602,-0.642859056131781 l 16.469575334130106 2.066191015138827" fill="#ff970d" stroke="none" /><path d="M 79.54389044137918 95.25157060432595 l -9.03170482469588 -2.096508750099229 a30.271841293922016,30.271841293922016 0 0,0 0.12219329606832395,-0.5065700997879576 l 8.994278728366742 2.2516640815465836" fill="#ff2803" stroke="none" /><path d="M 80.2630227832202 92.82701384747504 l -14.164479440961607 -5.147779914411783 a36.07090295505367,36.07090295505367 0 0,0 0.2171046010534222,-0.5817323932065064 l 14.073770251406557 5.390835444647631" fill="#ff810b" stroke="none" /><path d="M 81.43458229118936 90.18545643968196 l -13.386804376869057 -7.07688761712513 a36.14228746821231,36.14228746821231 0 0,0 0.2954922873337989,-0.5475023309287045 l 13.263003990316786 7.306270931386307" fill="#ff820b" stroke="none" /><line stroke="#e1ed5e" stroke-width="0.3" x1="26.266209847984257" x2="21.92892807433627" y1="57.711370442889674" y2="55.22380399835377" /><path d="M 25.39875349325466 57.213857153982495 a86.0,86.0 0 0,1 29.58750427330802,-30.492523968695096" fill="none" id="id23" stroke="none" /><text fill="#e1ed5e" style="font-size:6.75px; font-family:Arial;" text-anchor="middle"><textPath startOffset="21.46611528233685" xlink:href="#id23">November</textPath></text><path d="M 82.7489923806493 88.02491185347247 l -12.525262488748409 -8.694629651250612 a36.247255004900204,36.247255004900204 0 0,0 0.3602068898225422,-0.5094871006267891 l 12.373742979121989 8.908943252209188" fill="#ff830c" stroke="none" /><path d="M 84.07557802195018 86.31012108654704 l -8.229944061283133 -7.07510375062638 a31.8530674158957,31.8530674158957 0 0,0 0.36101377214222147,-0.41270114909924815 l 8.106938425563069 7.21572045592857" fill="#ff4106" stroke="none" /><path d="M 86.10567301691215 84.25364557470407 l -10.324099036913562 -11.700237280652289 a36.60392813837481,36.60392813837481 0 0,0 0.4760361794513345,-0.4128138838817875 l 10.121169058815456 11.876216157953756" fill="#ff880c" stroke="none" /><path d="M 87.51073957382395 83.11751280151077 l -5.510648801242322 -7.449076620049991 a30.26585088926046,30.26585088926046 0 0,0 0.42149475462391484,-0.3062338645654617 l 5.381608730264623 7.54282971943212" fill="#ff2803" stroke="none" /><line stroke="#e1ed5e" stroke-width="0.3" x1="56.762969772571076" x2="54.21961505331055" y1="26.818313649435495" y2="22.513508569990535" /><path d="M 56.25429882871897 25.957352633546506 a86.0,86.0 0 0,1 42.265352541879196,-11.944610805530505" fill="none" id="id24" stroke="none" /><text fill="#e1ed5e" style="font-size:6.75px; font-family:Arial;" text-anchor="middle"><textPath startOffset="22.20632615414155" xlink:href="#id24">December</textPath></text></svg>